<?xml version="1.0" encoding="utf-8" standalone="no"?>
<!DOCTYPE svg PUBLIC "-//W3C//DTD SVG 1.1//EN"
  "http://www.w3.org/Graphics/SVG/1.1/DTD/svg11.dtd">
<svg height="1080pt" version="1.1" viewBox="0 0 1440 1080" width="1440pt" xmlns="http://www.w3.org/2000/svg" xmlns:xlink="http://www.w3.org/1999/xlink">
 <metadata>
  <rdf:RDF xmlns:cc="http://creativecommons.org/ns#" xmlns:dc="http://purl.org/dc/elements/1.1/" xmlns:rdf="http://www.w3.org/1999/02/22-rdf-syntax-ns#">
   <cc:Work>
    <dc:type rdf:resource="http://purl.org/dc/dcmitype/StillImage"/>
    <dc:date>2022-04-18T18:19:24.793019</dc:date>
    <dc:format>image/svg+xml</dc:format>
    <dc:creator>
     <cc:Agent>
      <dc:title>Matplotlib v3.4.3, https://matplotlib.org/</dc:title>
     </cc:Agent>
    </dc:creator>
   </cc:Work>
  </rdf:RDF>
 </metadata>
 <defs>
  <style type="text/css">*{stroke-linecap:butt;stroke-linejoin:round;}</style>
 </defs>
 <g id="figure_1">
  <g id="patch_1">
   <path d="M 100 1080 
L 1310 1080 
L 1310 90 
L 100 90 
z
" style="fill:#ffffff;"/>
  </g>
  <g id="axes_1">
   <g id="patch_2">
    <path d="M 180 961.2 
L 1296 961.2 
L 1296 129.6 
L 180 129.6 
z
" style="fill:#ffffff;"/>
   </g>
   <g id="patch_3">
    <path clip-path="url(#p7f121da2e2)" d="M 230.727273 961.2 
L 263.454545 961.2 
L 263.454545 169.2 
L 230.727273 169.2 
z
" style="fill:#00c7c3;"/>
   </g>
   <g id="patch_4">
    <path clip-path="url(#p7f121da2e2)" d="M 271.636364 961.2 
L 304.363636 961.2 
L 304.363636 495.937539 
L 271.636364 495.937539 
z
" style="fill:#00c7c3;"/>
   </g>
   <g id="patch_5">
    <path clip-path="url(#p7f121da2e2)" d="M 312.545455 961.2 
L 345.272727 961.2 
L 345.272727 649.750982 
L 312.545455 649.750982 
z
" style="fill:#00c7c3;"/>
   </g>
   <g id="patch_6">
    <path clip-path="url(#p7f121da2e2)" d="M 353.454545 961.2 
L 386.181818 961.2 
L 386.181818 656.303206 
L 353.454545 656.303206 
z
" style="fill:#00c7c3;"/>
   </g>
   <g id="patch_7">
    <path clip-path="url(#p7f121da2e2)" d="M 394.363636 961.2 
L 427.090909 961.2 
L 427.090909 677.980145 
L 394.363636 677.980145 
z
" style="fill:#00c7c3;"/>
   </g>
   <g id="patch_8">
    <path clip-path="url(#p7f121da2e2)" d="M 435.272727 961.2 
L 468 961.2 
L 468 689.173526 
L 435.272727 689.173526 
z
" style="fill:#00c7c3;"/>
   </g>
   <g id="patch_9">
    <path clip-path="url(#p7f121da2e2)" d="M 476.181818 961.2 
L 508.909091 961.2 
L 508.909091 710.522854 
L 476.181818 710.522854 
z
" style="fill:#00c7c3;"/>
   </g>
   <g id="patch_10">
    <path clip-path="url(#p7f121da2e2)" d="M 517.090909 961.2 
L 549.818182 961.2 
L 549.818182 725.046949 
L 517.090909 725.046949 
z
" style="fill:#00c7c3;"/>
   </g>
   <g id="patch_11">
    <path clip-path="url(#p7f121da2e2)" d="M 558 961.2 
L 590.727273 961.2 
L 590.727273 729.032885 
L 558 729.032885 
z
" style="fill:#00c7c3;"/>
   </g>
   <g id="patch_12">
    <path clip-path="url(#p7f121da2e2)" d="M 598.909091 961.2 
L 631.636364 961.2 
L 631.636364 733.401034 
L 598.909091 733.401034 
z
" style="fill:#00c7c3;"/>
   </g>
   <g id="patch_13">
    <path clip-path="url(#p7f121da2e2)" d="M 639.818182 961.2 
L 672.545455 961.2 
L 672.545455 763.268252 
L 639.818182 763.268252 
z
" style="fill:#00c7c3;"/>
   </g>
   <g id="patch_14">
    <path clip-path="url(#p7f121da2e2)" d="M 680.727273 961.2 
L 713.454545 961.2 
L 713.454545 766.489762 
L 680.727273 766.489762 
z
" style="fill:#00c7c3;"/>
   </g>
   <g id="patch_15">
    <path clip-path="url(#p7f121da2e2)" d="M 721.636364 961.2 
L 754.363636 961.2 
L 754.363636 767.363392 
L 721.636364 767.363392 
z
" style="fill:#00c7c3;"/>
   </g>
   <g id="patch_16">
    <path clip-path="url(#p7f121da2e2)" d="M 762.545455 961.2 
L 795.272727 961.2 
L 795.272727 768.18242 
L 762.545455 768.18242 
z
" style="fill:#00c7c3;"/>
   </g>
   <g id="patch_17">
    <path clip-path="url(#p7f121da2e2)" d="M 803.454545 961.2 
L 836.181818 961.2 
L 836.181818 771.40393 
L 803.454545 771.40393 
z
" style="fill:#00c7c3;"/>
   </g>
   <g id="patch_18">
    <path clip-path="url(#p7f121da2e2)" d="M 844.363636 961.2 
L 877.090909 961.2 
L 877.090909 778.502172 
L 844.363636 778.502172 
z
" style="fill:#00c7c3;"/>
   </g>
   <g id="patch_19">
    <path clip-path="url(#p7f121da2e2)" d="M 885.272727 961.2 
L 918 961.2 
L 918 780.031024 
L 885.272727 780.031024 
z
" style="fill:#00c7c3;"/>
   </g>
   <g id="patch_20">
    <path clip-path="url(#p7f121da2e2)" d="M 926.181818 961.2 
L 958.909091 961.2 
L 958.909091 781.942089 
L 926.181818 781.942089 
z
" style="fill:#00c7c3;"/>
   </g>
   <g id="patch_21">
    <path clip-path="url(#p7f121da2e2)" d="M 967.090909 961.2 
L 999.818182 961.2 
L 999.818182 790.296174 
L 967.090909 790.296174 
z
" style="fill:#00c7c3;"/>
   </g>
   <g id="patch_22">
    <path clip-path="url(#p7f121da2e2)" d="M 1008 961.2 
L 1040.727273 961.2 
L 1040.727273 790.896794 
L 1008 790.896794 
z
" style="fill:#00c7c3;"/>
   </g>
   <g id="patch_23">
    <path clip-path="url(#p7f121da2e2)" d="M 1048.909091 961.2 
L 1081.636364 961.2 
L 1081.636364 798.431851 
L 1048.909091 798.431851 
z
" style="fill:#00c7c3;"/>
   </g>
   <g id="patch_24">
    <path clip-path="url(#p7f121da2e2)" d="M 1089.818182 961.2 
L 1122.545455 961.2 
L 1122.545455 799.523888 
L 1089.818182 799.523888 
z
" style="fill:#00c7c3;"/>
   </g>
   <g id="patch_25">
    <path clip-path="url(#p7f121da2e2)" d="M 1130.727273 961.2 
L 1163.454545 961.2 
L 1163.454545 810.553464 
L 1130.727273 810.553464 
z
" style="fill:#00c7c3;"/>
   </g>
   <g id="patch_26">
    <path clip-path="url(#p7f121da2e2)" d="M 1171.636364 961.2 
L 1204.363636 961.2 
L 1204.363636 816.450465 
L 1171.636364 816.450465 
z
" style="fill:#00c7c3;"/>
   </g>
   <g id="patch_27">
    <path clip-path="url(#p7f121da2e2)" d="M 1212.545455 961.2 
L 1245.272727 961.2 
L 1245.272727 816.614271 
L 1212.545455 816.614271 
z
" style="fill:#00c7c3;"/>
   </g>
   <g id="matplotlib.axis_1">
    <g id="xtick_1">
     <g id="line2d_1">
      <defs>
       <path d="M 0 0 
L 0 3.5 
" id="m81698932bb" style="stroke:#000000;stroke-width:0.8;"/>
      </defs>
      <g>
       <use style="stroke:#000000;stroke-width:0.8;" x="247.090909" xlink:href="#m81698932bb" y="961.2"/>
      </g>
     </g>
     <g id="text_1">
      <!-- bert -->
      <g transform="translate(237.345579 998.630365)rotate(-40)scale(0.16 -0.16)">
       <defs>
        <path d="M 3116 1747 
Q 3116 2381 2855 2742 
Q 2594 3103 2138 3103 
Q 1681 3103 1420 2742 
Q 1159 2381 1159 1747 
Q 1159 1113 1420 752 
Q 1681 391 2138 391 
Q 2594 391 2855 752 
Q 3116 1113 3116 1747 
z
M 1159 2969 
Q 1341 3281 1617 3432 
Q 1894 3584 2278 3584 
Q 2916 3584 3314 3078 
Q 3713 2572 3713 1747 
Q 3713 922 3314 415 
Q 2916 -91 2278 -91 
Q 1894 -91 1617 61 
Q 1341 213 1159 525 
L 1159 0 
L 581 0 
L 581 4863 
L 1159 4863 
L 1159 2969 
z
" id="DejaVuSans-62" transform="scale(0.015625)"/>
        <path d="M 3597 1894 
L 3597 1613 
L 953 1613 
Q 991 1019 1311 708 
Q 1631 397 2203 397 
Q 2534 397 2845 478 
Q 3156 559 3463 722 
L 3463 178 
Q 3153 47 2828 -22 
Q 2503 -91 2169 -91 
Q 1331 -91 842 396 
Q 353 884 353 1716 
Q 353 2575 817 3079 
Q 1281 3584 2069 3584 
Q 2775 3584 3186 3129 
Q 3597 2675 3597 1894 
z
M 3022 2063 
Q 3016 2534 2758 2815 
Q 2500 3097 2075 3097 
Q 1594 3097 1305 2825 
Q 1016 2553 972 2059 
L 3022 2063 
z
" id="DejaVuSans-65" transform="scale(0.015625)"/>
        <path d="M 2631 2963 
Q 2534 3019 2420 3045 
Q 2306 3072 2169 3072 
Q 1681 3072 1420 2755 
Q 1159 2438 1159 1844 
L 1159 0 
L 581 0 
L 581 3500 
L 1159 3500 
L 1159 2956 
Q 1341 3275 1631 3429 
Q 1922 3584 2338 3584 
Q 2397 3584 2469 3576 
Q 2541 3569 2628 3553 
L 2631 2963 
z
" id="DejaVuSans-72" transform="scale(0.015625)"/>
        <path d="M 1172 4494 
L 1172 3500 
L 2356 3500 
L 2356 3053 
L 1172 3053 
L 1172 1153 
Q 1172 725 1289 603 
Q 1406 481 1766 481 
L 2356 481 
L 2356 0 
L 1766 0 
Q 1100 0 847 248 
Q 594 497 594 1153 
L 594 3053 
L 172 3053 
L 172 3500 
L 594 3500 
L 594 4494 
L 1172 4494 
z
" id="DejaVuSans-74" transform="scale(0.015625)"/>
       </defs>
       <use xlink:href="#DejaVuSans-62"/>
       <use x="63.476562" xlink:href="#DejaVuSans-65"/>
       <use x="125" xlink:href="#DejaVuSans-72"/>
       <use x="166.113281" xlink:href="#DejaVuSans-74"/>
      </g>
     </g>
    </g>
    <g id="xtick_2">
     <g id="line2d_2">
      <g>
       <use style="stroke:#000000;stroke-width:0.8;" x="288" xlink:href="#m81698932bb" y="961.2"/>
      </g>
     </g>
     <g id="text_2">
      <!-- pre -->
      <g transform="translate(280.795065 994.367076)rotate(-40)scale(0.16 -0.16)">
       <defs>
        <path d="M 1159 525 
L 1159 -1331 
L 581 -1331 
L 581 3500 
L 1159 3500 
L 1159 2969 
Q 1341 3281 1617 3432 
Q 1894 3584 2278 3584 
Q 2916 3584 3314 3078 
Q 3713 2572 3713 1747 
Q 3713 922 3314 415 
Q 2916 -91 2278 -91 
Q 1894 -91 1617 61 
Q 1341 213 1159 525 
z
M 3116 1747 
Q 3116 2381 2855 2742 
Q 2594 3103 2138 3103 
Q 1681 3103 1420 2742 
Q 1159 2381 1159 1747 
Q 1159 1113 1420 752 
Q 1681 391 2138 391 
Q 2594 391 2855 752 
Q 3116 1113 3116 1747 
z
" id="DejaVuSans-70" transform="scale(0.015625)"/>
       </defs>
       <use xlink:href="#DejaVuSans-70"/>
       <use x="63.476562" xlink:href="#DejaVuSans-72"/>
       <use x="102.339844" xlink:href="#DejaVuSans-65"/>
      </g>
     </g>
    </g>
    <g id="xtick_3">
     <g id="line2d_3">
      <g>
       <use style="stroke:#000000;stroke-width:0.8;" x="328.909091" xlink:href="#m81698932bb" y="961.2"/>
      </g>
     </g>
     <g id="text_3">
      <!-- large -->
      <g transform="translate(316.215447 1003.578223)rotate(-40)scale(0.16 -0.16)">
       <defs>
        <path d="M 603 4863 
L 1178 4863 
L 1178 0 
L 603 0 
L 603 4863 
z
" id="DejaVuSans-6c" transform="scale(0.015625)"/>
        <path d="M 2194 1759 
Q 1497 1759 1228 1600 
Q 959 1441 959 1056 
Q 959 750 1161 570 
Q 1363 391 1709 391 
Q 2188 391 2477 730 
Q 2766 1069 2766 1631 
L 2766 1759 
L 2194 1759 
z
M 3341 1997 
L 3341 0 
L 2766 0 
L 2766 531 
Q 2569 213 2275 61 
Q 1981 -91 1556 -91 
Q 1019 -91 701 211 
Q 384 513 384 1019 
Q 384 1609 779 1909 
Q 1175 2209 1959 2209 
L 2766 2209 
L 2766 2266 
Q 2766 2663 2505 2880 
Q 2244 3097 1772 3097 
Q 1472 3097 1187 3025 
Q 903 2953 641 2809 
L 641 3341 
Q 956 3463 1253 3523 
Q 1550 3584 1831 3584 
Q 2591 3584 2966 3190 
Q 3341 2797 3341 1997 
z
" id="DejaVuSans-61" transform="scale(0.015625)"/>
        <path d="M 2906 1791 
Q 2906 2416 2648 2759 
Q 2391 3103 1925 3103 
Q 1463 3103 1205 2759 
Q 947 2416 947 1791 
Q 947 1169 1205 825 
Q 1463 481 1925 481 
Q 2391 481 2648 825 
Q 2906 1169 2906 1791 
z
M 3481 434 
Q 3481 -459 3084 -895 
Q 2688 -1331 1869 -1331 
Q 1566 -1331 1297 -1286 
Q 1028 -1241 775 -1147 
L 775 -588 
Q 1028 -725 1275 -790 
Q 1522 -856 1778 -856 
Q 2344 -856 2625 -561 
Q 2906 -266 2906 331 
L 2906 616 
Q 2728 306 2450 153 
Q 2172 0 1784 0 
Q 1141 0 747 490 
Q 353 981 353 1791 
Q 353 2603 747 3093 
Q 1141 3584 1784 3584 
Q 2172 3584 2450 3431 
Q 2728 3278 2906 2969 
L 2906 3500 
L 3481 3500 
L 3481 434 
z
" id="DejaVuSans-67" transform="scale(0.015625)"/>
       </defs>
       <use xlink:href="#DejaVuSans-6c"/>
       <use x="27.783203" xlink:href="#DejaVuSans-61"/>
       <use x="89.0625" xlink:href="#DejaVuSans-72"/>
       <use x="128.425781" xlink:href="#DejaVuSans-67"/>
       <use x="191.902344" xlink:href="#DejaVuSans-65"/>
      </g>
     </g>
    </g>
    <g id="xtick_4">
     <g id="line2d_4">
      <g>
       <use style="stroke:#000000;stroke-width:0.8;" x="369.818182" xlink:href="#m81698932bb" y="961.2"/>
      </g>
     </g>
     <g id="text_4">
      <!-- word -->
      <g transform="translate(357.591825 1002.794022)rotate(-40)scale(0.16 -0.16)">
       <defs>
        <path d="M 269 3500 
L 844 3500 
L 1563 769 
L 2278 3500 
L 2956 3500 
L 3675 769 
L 4391 3500 
L 4966 3500 
L 4050 0 
L 3372 0 
L 2619 2869 
L 1863 0 
L 1184 0 
L 269 3500 
z
" id="DejaVuSans-77" transform="scale(0.015625)"/>
        <path d="M 1959 3097 
Q 1497 3097 1228 2736 
Q 959 2375 959 1747 
Q 959 1119 1226 758 
Q 1494 397 1959 397 
Q 2419 397 2687 759 
Q 2956 1122 2956 1747 
Q 2956 2369 2687 2733 
Q 2419 3097 1959 3097 
z
M 1959 3584 
Q 2709 3584 3137 3096 
Q 3566 2609 3566 1747 
Q 3566 888 3137 398 
Q 2709 -91 1959 -91 
Q 1206 -91 779 398 
Q 353 888 353 1747 
Q 353 2609 779 3096 
Q 1206 3584 1959 3584 
z
" id="DejaVuSans-6f" transform="scale(0.015625)"/>
        <path d="M 2906 2969 
L 2906 4863 
L 3481 4863 
L 3481 0 
L 2906 0 
L 2906 525 
Q 2725 213 2448 61 
Q 2172 -91 1784 -91 
Q 1150 -91 751 415 
Q 353 922 353 1747 
Q 353 2572 751 3078 
Q 1150 3584 1784 3584 
Q 2172 3584 2448 3432 
Q 2725 3281 2906 2969 
z
M 947 1747 
Q 947 1113 1208 752 
Q 1469 391 1925 391 
Q 2381 391 2643 752 
Q 2906 1113 2906 1747 
Q 2906 2381 2643 2742 
Q 2381 3103 1925 3103 
Q 1469 3103 1208 2742 
Q 947 2381 947 1747 
z
" id="DejaVuSans-64" transform="scale(0.015625)"/>
       </defs>
       <use xlink:href="#DejaVuSans-77"/>
       <use x="81.787109" xlink:href="#DejaVuSans-6f"/>
       <use x="142.96875" xlink:href="#DejaVuSans-72"/>
       <use x="182.332031" xlink:href="#DejaVuSans-64"/>
      </g>
     </g>
    </g>
    <g id="xtick_5">
     <g id="line2d_5">
      <g>
       <use style="stroke:#000000;stroke-width:0.8;" x="410.727273" xlink:href="#m81698932bb" y="961.2"/>
      </g>
     </g>
     <g id="text_5">
      <!-- base -->
      <g transform="translate(398.955755 1002.030712)rotate(-40)scale(0.16 -0.16)">
       <defs>
        <path d="M 2834 3397 
L 2834 2853 
Q 2591 2978 2328 3040 
Q 2066 3103 1784 3103 
Q 1356 3103 1142 2972 
Q 928 2841 928 2578 
Q 928 2378 1081 2264 
Q 1234 2150 1697 2047 
L 1894 2003 
Q 2506 1872 2764 1633 
Q 3022 1394 3022 966 
Q 3022 478 2636 193 
Q 2250 -91 1575 -91 
Q 1294 -91 989 -36 
Q 684 19 347 128 
L 347 722 
Q 666 556 975 473 
Q 1284 391 1588 391 
Q 1994 391 2212 530 
Q 2431 669 2431 922 
Q 2431 1156 2273 1281 
Q 2116 1406 1581 1522 
L 1381 1569 
Q 847 1681 609 1914 
Q 372 2147 372 2553 
Q 372 3047 722 3315 
Q 1072 3584 1716 3584 
Q 2034 3584 2315 3537 
Q 2597 3491 2834 3397 
z
" id="DejaVuSans-73" transform="scale(0.015625)"/>
       </defs>
       <use xlink:href="#DejaVuSans-62"/>
       <use x="63.476562" xlink:href="#DejaVuSans-61"/>
       <use x="124.755859" xlink:href="#DejaVuSans-73"/>
       <use x="176.855469" xlink:href="#DejaVuSans-65"/>
      </g>
     </g>
    </g>
    <g id="xtick_6">
     <g id="line2d_6">
      <g>
       <use style="stroke:#000000;stroke-width:0.8;" x="451.636364" xlink:href="#m81698932bb" y="961.2"/>
      </g>
     </g>
     <g id="text_6">
      <!-- task -->
      <g transform="translate(441.57504 999.160665)rotate(-40)scale(0.16 -0.16)">
       <defs>
        <path d="M 581 4863 
L 1159 4863 
L 1159 1991 
L 2875 3500 
L 3609 3500 
L 1753 1863 
L 3688 0 
L 2938 0 
L 1159 1709 
L 1159 0 
L 581 0 
L 581 4863 
z
" id="DejaVuSans-6b" transform="scale(0.015625)"/>
       </defs>
       <use xlink:href="#DejaVuSans-74"/>
       <use x="39.208984" xlink:href="#DejaVuSans-61"/>
       <use x="100.488281" xlink:href="#DejaVuSans-73"/>
       <use x="152.587891" xlink:href="#DejaVuSans-6b"/>
      </g>
     </g>
    </g>
    <g id="xtick_7">
     <g id="line2d_7">
      <g>
       <use style="stroke:#000000;stroke-width:0.8;" x="492.545455" xlink:href="#m81698932bb" y="961.2"/>
      </g>
     </g>
     <g id="text_7">
      <!-- language -->
      <g transform="translate(466.850121 1025.397648)rotate(-40)scale(0.16 -0.16)">
       <defs>
        <path d="M 3513 2113 
L 3513 0 
L 2938 0 
L 2938 2094 
Q 2938 2591 2744 2837 
Q 2550 3084 2163 3084 
Q 1697 3084 1428 2787 
Q 1159 2491 1159 1978 
L 1159 0 
L 581 0 
L 581 3500 
L 1159 3500 
L 1159 2956 
Q 1366 3272 1645 3428 
Q 1925 3584 2291 3584 
Q 2894 3584 3203 3211 
Q 3513 2838 3513 2113 
z
" id="DejaVuSans-6e" transform="scale(0.015625)"/>
        <path d="M 544 1381 
L 544 3500 
L 1119 3500 
L 1119 1403 
Q 1119 906 1312 657 
Q 1506 409 1894 409 
Q 2359 409 2629 706 
Q 2900 1003 2900 1516 
L 2900 3500 
L 3475 3500 
L 3475 0 
L 2900 0 
L 2900 538 
Q 2691 219 2414 64 
Q 2138 -91 1772 -91 
Q 1169 -91 856 284 
Q 544 659 544 1381 
z
M 1991 3584 
L 1991 3584 
z
" id="DejaVuSans-75" transform="scale(0.015625)"/>
       </defs>
       <use xlink:href="#DejaVuSans-6c"/>
       <use x="27.783203" xlink:href="#DejaVuSans-61"/>
       <use x="89.0625" xlink:href="#DejaVuSans-6e"/>
       <use x="152.441406" xlink:href="#DejaVuSans-67"/>
       <use x="215.917969" xlink:href="#DejaVuSans-75"/>
       <use x="279.296875" xlink:href="#DejaVuSans-61"/>
       <use x="340.576172" xlink:href="#DejaVuSans-67"/>
       <use x="404.052734" xlink:href="#DejaVuSans-65"/>
      </g>
     </g>
    </g>
    <g id="xtick_8">
     <g id="line2d_8">
      <g>
       <use style="stroke:#000000;stroke-width:0.8;" x="533.454545" xlink:href="#m81698932bb" y="961.2"/>
      </g>
     </g>
     <g id="text_8">
      <!-- squad -->
      <g transform="translate(517.679488 1008.749449)rotate(-40)scale(0.16 -0.16)">
       <defs>
        <path d="M 947 1747 
Q 947 1113 1208 752 
Q 1469 391 1925 391 
Q 2381 391 2643 752 
Q 2906 1113 2906 1747 
Q 2906 2381 2643 2742 
Q 2381 3103 1925 3103 
Q 1469 3103 1208 2742 
Q 947 2381 947 1747 
z
M 2906 525 
Q 2725 213 2448 61 
Q 2172 -91 1784 -91 
Q 1150 -91 751 415 
Q 353 922 353 1747 
Q 353 2572 751 3078 
Q 1150 3584 1784 3584 
Q 2172 3584 2448 3432 
Q 2725 3281 2906 2969 
L 2906 3500 
L 3481 3500 
L 3481 -1331 
L 2906 -1331 
L 2906 525 
z
" id="DejaVuSans-71" transform="scale(0.015625)"/>
       </defs>
       <use xlink:href="#DejaVuSans-73"/>
       <use x="52.099609" xlink:href="#DejaVuSans-71"/>
       <use x="115.576172" xlink:href="#DejaVuSans-75"/>
       <use x="178.955078" xlink:href="#DejaVuSans-61"/>
       <use x="240.234375" xlink:href="#DejaVuSans-64"/>
      </g>
     </g>
    </g>
    <g id="xtick_9">
     <g id="line2d_9">
      <g>
       <use style="stroke:#000000;stroke-width:0.8;" x="574.363636" xlink:href="#m81698932bb" y="961.2"/>
      </g>
     </g>
     <g id="text_9">
      <!-- text -->
      <g transform="translate(565.105702 997.812418)rotate(-40)scale(0.16 -0.16)">
       <defs>
        <path d="M 3513 3500 
L 2247 1797 
L 3578 0 
L 2900 0 
L 1881 1375 
L 863 0 
L 184 0 
L 1544 1831 
L 300 3500 
L 978 3500 
L 1906 2253 
L 2834 3500 
L 3513 3500 
z
" id="DejaVuSans-78" transform="scale(0.015625)"/>
       </defs>
       <use xlink:href="#DejaVuSans-74"/>
       <use x="39.208984" xlink:href="#DejaVuSans-65"/>
       <use x="98.982422" xlink:href="#DejaVuSans-78"/>
       <use x="158.162109" xlink:href="#DejaVuSans-74"/>
      </g>
     </g>
    </g>
    <g id="xtick_10">
     <g id="line2d_10">
      <g>
       <use style="stroke:#000000;stroke-width:0.8;" x="615.272727" xlink:href="#m81698932bb" y="961.2"/>
      </g>
     </g>
     <g id="text_10">
      <!-- sentence -->
      <g transform="translate(590.065748 1024.578094)rotate(-40)scale(0.16 -0.16)">
       <defs>
        <path d="M 3122 3366 
L 3122 2828 
Q 2878 2963 2633 3030 
Q 2388 3097 2138 3097 
Q 1578 3097 1268 2742 
Q 959 2388 959 1747 
Q 959 1106 1268 751 
Q 1578 397 2138 397 
Q 2388 397 2633 464 
Q 2878 531 3122 666 
L 3122 134 
Q 2881 22 2623 -34 
Q 2366 -91 2075 -91 
Q 1284 -91 818 406 
Q 353 903 353 1747 
Q 353 2603 823 3093 
Q 1294 3584 2113 3584 
Q 2378 3584 2631 3529 
Q 2884 3475 3122 3366 
z
" id="DejaVuSans-63" transform="scale(0.015625)"/>
       </defs>
       <use xlink:href="#DejaVuSans-73"/>
       <use x="52.099609" xlink:href="#DejaVuSans-65"/>
       <use x="113.623047" xlink:href="#DejaVuSans-6e"/>
       <use x="177.001953" xlink:href="#DejaVuSans-74"/>
       <use x="216.210938" xlink:href="#DejaVuSans-65"/>
       <use x="277.734375" xlink:href="#DejaVuSans-6e"/>
       <use x="341.113281" xlink:href="#DejaVuSans-63"/>
       <use x="396.09375" xlink:href="#DejaVuSans-65"/>
      </g>
     </g>
    </g>
    <g id="xtick_11">
     <g id="line2d_11">
      <g>
       <use style="stroke:#000000;stroke-width:0.8;" x="656.181818" xlink:href="#m81698932bb" y="961.2"/>
      </g>
     </g>
     <g id="text_11">
      <!-- input -->
      <g transform="translate(643.256446 1003.967109)rotate(-40)scale(0.16 -0.16)">
       <defs>
        <path d="M 603 3500 
L 1178 3500 
L 1178 0 
L 603 0 
L 603 3500 
z
M 603 4863 
L 1178 4863 
L 1178 4134 
L 603 4134 
L 603 4863 
z
" id="DejaVuSans-69" transform="scale(0.015625)"/>
       </defs>
       <use xlink:href="#DejaVuSans-69"/>
       <use x="27.783203" xlink:href="#DejaVuSans-6e"/>
       <use x="91.162109" xlink:href="#DejaVuSans-70"/>
       <use x="154.638672" xlink:href="#DejaVuSans-75"/>
       <use x="218.017578" xlink:href="#DejaVuSans-74"/>
      </g>
     </g>
    </g>
    <g id="xtick_12">
     <g id="line2d_12">
      <g>
       <use style="stroke:#000000;stroke-width:0.8;" x="697.090909" xlink:href="#m81698932bb" y="961.2"/>
      </g>
     </g>
     <g id="text_12">
      <!-- layer -->
      <g transform="translate(684.553347 1003.316287)rotate(-40)scale(0.16 -0.16)">
       <defs>
        <path d="M 2059 -325 
Q 1816 -950 1584 -1140 
Q 1353 -1331 966 -1331 
L 506 -1331 
L 506 -850 
L 844 -850 
Q 1081 -850 1212 -737 
Q 1344 -625 1503 -206 
L 1606 56 
L 191 3500 
L 800 3500 
L 1894 763 
L 2988 3500 
L 3597 3500 
L 2059 -325 
z
" id="DejaVuSans-79" transform="scale(0.015625)"/>
       </defs>
       <use xlink:href="#DejaVuSans-6c"/>
       <use x="27.783203" xlink:href="#DejaVuSans-61"/>
       <use x="89.0625" xlink:href="#DejaVuSans-79"/>
       <use x="148.242188" xlink:href="#DejaVuSans-65"/>
       <use x="209.765625" xlink:href="#DejaVuSans-72"/>
      </g>
     </g>
    </g>
    <g id="xtick_13">
     <g id="line2d_13">
      <g>
       <use style="stroke:#000000;stroke-width:0.8;" x="738" xlink:href="#m81698932bb" y="961.2"/>
      </g>
     </g>
     <g id="text_13">
      <!-- memory -->
      <g transform="translate(715.231914 1020.485144)rotate(-40)scale(0.16 -0.16)">
       <defs>
        <path d="M 3328 2828 
Q 3544 3216 3844 3400 
Q 4144 3584 4550 3584 
Q 5097 3584 5394 3201 
Q 5691 2819 5691 2113 
L 5691 0 
L 5113 0 
L 5113 2094 
Q 5113 2597 4934 2840 
Q 4756 3084 4391 3084 
Q 3944 3084 3684 2787 
Q 3425 2491 3425 1978 
L 3425 0 
L 2847 0 
L 2847 2094 
Q 2847 2600 2669 2842 
Q 2491 3084 2119 3084 
Q 1678 3084 1418 2786 
Q 1159 2488 1159 1978 
L 1159 0 
L 581 0 
L 581 3500 
L 1159 3500 
L 1159 2956 
Q 1356 3278 1631 3431 
Q 1906 3584 2284 3584 
Q 2666 3584 2933 3390 
Q 3200 3197 3328 2828 
z
" id="DejaVuSans-6d" transform="scale(0.015625)"/>
       </defs>
       <use xlink:href="#DejaVuSans-6d"/>
       <use x="97.412109" xlink:href="#DejaVuSans-65"/>
       <use x="158.935547" xlink:href="#DejaVuSans-6d"/>
       <use x="256.347656" xlink:href="#DejaVuSans-6f"/>
       <use x="317.529297" xlink:href="#DejaVuSans-72"/>
       <use x="358.642578" xlink:href="#DejaVuSans-79"/>
      </g>
     </g>
    </g>
    <g id="xtick_14">
     <g id="line2d_14">
      <g>
       <use style="stroke:#000000;stroke-width:0.8;" x="778.909091" xlink:href="#m81698932bb" y="961.2"/>
      </g>
     </g>
     <g id="text_14">
      <!-- tune -->
      <g transform="translate(767.805947 1000.909047)rotate(-40)scale(0.16 -0.16)">
       <use xlink:href="#DejaVuSans-74"/>
       <use x="39.208984" xlink:href="#DejaVuSans-75"/>
       <use x="102.587891" xlink:href="#DejaVuSans-6e"/>
       <use x="165.966797" xlink:href="#DejaVuSans-65"/>
      </g>
     </g>
    </g>
    <g id="xtick_15">
     <g id="line2d_15">
      <g>
       <use style="stroke:#000000;stroke-width:0.8;" x="819.818182" xlink:href="#m81698932bb" y="961.2"/>
      </g>
     </g>
     <g id="text_15">
      <!-- cloud -->
      <g transform="translate(806.059736 1005.365172)rotate(-40)scale(0.16 -0.16)">
       <use xlink:href="#DejaVuSans-63"/>
       <use x="54.980469" xlink:href="#DejaVuSans-6c"/>
       <use x="82.763672" xlink:href="#DejaVuSans-6f"/>
       <use x="143.945312" xlink:href="#DejaVuSans-75"/>
       <use x="207.324219" xlink:href="#DejaVuSans-64"/>
      </g>
     </g>
    </g>
    <g id="xtick_16">
     <g id="line2d_16">
      <g>
       <use style="stroke:#000000;stroke-width:0.8;" x="860.727273" xlink:href="#m81698932bb" y="961.2"/>
      </g>
     </g>
     <g id="text_16">
      <!-- fine -->
      <g transform="translate(852.050574 996.836988)rotate(-40)scale(0.16 -0.16)">
       <defs>
        <path d="M 2375 4863 
L 2375 4384 
L 1825 4384 
Q 1516 4384 1395 4259 
Q 1275 4134 1275 3809 
L 1275 3500 
L 2222 3500 
L 2222 3053 
L 1275 3053 
L 1275 0 
L 697 0 
L 697 3053 
L 147 3053 
L 147 3500 
L 697 3500 
L 697 3744 
Q 697 4328 969 4595 
Q 1241 4863 1831 4863 
L 2375 4863 
z
" id="DejaVuSans-66" transform="scale(0.015625)"/>
       </defs>
       <use xlink:href="#DejaVuSans-66"/>
       <use x="35.205078" xlink:href="#DejaVuSans-69"/>
       <use x="62.988281" xlink:href="#DejaVuSans-6e"/>
       <use x="126.367188" xlink:href="#DejaVuSans-65"/>
      </g>
     </g>
    </g>
    <g id="xtick_17">
     <g id="line2d_17">
      <g>
       <use style="stroke:#000000;stroke-width:0.8;" x="901.636364" xlink:href="#m81698932bb" y="961.2"/>
      </g>
     </g>
     <g id="text_17">
      <!-- release -->
      <g transform="translate(882.129712 1015.011807)rotate(-40)scale(0.16 -0.16)">
       <use xlink:href="#DejaVuSans-72"/>
       <use x="38.863281" xlink:href="#DejaVuSans-65"/>
       <use x="100.386719" xlink:href="#DejaVuSans-6c"/>
       <use x="128.169922" xlink:href="#DejaVuSans-65"/>
       <use x="189.693359" xlink:href="#DejaVuSans-61"/>
       <use x="250.972656" xlink:href="#DejaVuSans-73"/>
       <use x="303.072266" xlink:href="#DejaVuSans-65"/>
      </g>
     </g>
    </g>
    <g id="xtick_18">
     <g id="line2d_18">
      <g>
       <use style="stroke:#000000;stroke-width:0.8;" x="942.545455" xlink:href="#m81698932bb" y="961.2"/>
      </g>
     </g>
     <g id="text_18">
      <!-- see -->
      <g transform="translate(934.649164 995.527308)rotate(-40)scale(0.16 -0.16)">
       <use xlink:href="#DejaVuSans-73"/>
       <use x="52.099609" xlink:href="#DejaVuSans-65"/>
       <use x="113.623047" xlink:href="#DejaVuSans-65"/>
      </g>
     </g>
    </g>
    <g id="xtick_19">
     <g id="line2d_19">
      <g>
       <use style="stroke:#000000;stroke-width:0.8;" x="983.454545" xlink:href="#m81698932bb" y="961.2"/>
      </g>
     </g>
     <g id="text_19">
      <!-- gpu -->
      <g transform="translate(974.627511 997.089282)rotate(-40)scale(0.16 -0.16)">
       <use xlink:href="#DejaVuSans-67"/>
       <use x="63.476562" xlink:href="#DejaVuSans-70"/>
       <use x="126.953125" xlink:href="#DejaVuSans-75"/>
      </g>
     </g>
    </g>
    <g id="xtick_20">
     <g id="line2d_20">
      <g>
       <use style="stroke:#000000;stroke-width:0.8;" x="1024.363636" xlink:href="#m81698932bb" y="961.2"/>
      </g>
     </g>
     <g id="text_20">
      <!-- sequence -->
      <g transform="translate(997.668615 1027.075324)rotate(-40)scale(0.16 -0.16)">
       <use xlink:href="#DejaVuSans-73"/>
       <use x="52.099609" xlink:href="#DejaVuSans-65"/>
       <use x="113.623047" xlink:href="#DejaVuSans-71"/>
       <use x="177.099609" xlink:href="#DejaVuSans-75"/>
       <use x="240.478516" xlink:href="#DejaVuSans-65"/>
       <use x="302.001953" xlink:href="#DejaVuSans-6e"/>
       <use x="365.380859" xlink:href="#DejaVuSans-63"/>
       <use x="420.361328" xlink:href="#DejaVuSans-65"/>
      </g>
     </g>
    </g>
    <g id="xtick_21">
     <g id="line2d_21">
      <g>
       <use style="stroke:#000000;stroke-width:0.8;" x="1065.272727" xlink:href="#m81698932bb" y="961.2"/>
      </g>
     </g>
     <g id="text_21">
      <!-- script -->
      <g transform="translate(1051.033589 1006.171871)rotate(-40)scale(0.16 -0.16)">
       <use xlink:href="#DejaVuSans-73"/>
       <use x="52.099609" xlink:href="#DejaVuSans-63"/>
       <use x="107.080078" xlink:href="#DejaVuSans-72"/>
       <use x="148.193359" xlink:href="#DejaVuSans-69"/>
       <use x="175.976562" xlink:href="#DejaVuSans-70"/>
       <use x="239.453125" xlink:href="#DejaVuSans-74"/>
      </g>
     </g>
    </g>
    <g id="xtick_22">
     <g id="line2d_22">
      <g>
       <use style="stroke:#000000;stroke-width:0.8;" x="1106.181818" xlink:href="#m81698932bb" y="961.2"/>
      </g>
     </g>
     <g id="text_22">
      <!-- output -->
      <g transform="translate(1088.806685 1011.434694)rotate(-40)scale(0.16 -0.16)">
       <use xlink:href="#DejaVuSans-6f"/>
       <use x="61.181641" xlink:href="#DejaVuSans-75"/>
       <use x="124.560547" xlink:href="#DejaVuSans-74"/>
       <use x="163.769531" xlink:href="#DejaVuSans-70"/>
       <use x="227.246094" xlink:href="#DejaVuSans-75"/>
       <use x="290.625" xlink:href="#DejaVuSans-74"/>
      </g>
     </g>
    </g>
    <g id="xtick_23">
     <g id="line2d_23">
      <g>
       <use style="stroke:#000000;stroke-width:0.8;" x="1147.090909" xlink:href="#m81698932bb" y="961.2"/>
      </g>
     </g>
     <g id="text_23">
      <!-- parameter -->
      <g transform="translate(1117.574929 1031.809455)rotate(-40)scale(0.16 -0.16)">
       <use xlink:href="#DejaVuSans-70"/>
       <use x="63.476562" xlink:href="#DejaVuSans-61"/>
       <use x="124.755859" xlink:href="#DejaVuSans-72"/>
       <use x="165.869141" xlink:href="#DejaVuSans-61"/>
       <use x="227.148438" xlink:href="#DejaVuSans-6d"/>
       <use x="324.560547" xlink:href="#DejaVuSans-65"/>
       <use x="386.083984" xlink:href="#DejaVuSans-74"/>
       <use x="425.292969" xlink:href="#DejaVuSans-65"/>
       <use x="486.816406" xlink:href="#DejaVuSans-72"/>
      </g>
     </g>
    </g>
    <g id="xtick_24">
     <g id="line2d_24">
      <g>
       <use style="stroke:#000000;stroke-width:0.8;" x="1188" xlink:href="#m81698932bb" y="961.2"/>
      </g>
     </g>
     <g id="text_24">
      <!-- representation -->
      <g transform="translate(1145.898868 1052.929849)rotate(-40)scale(0.16 -0.16)">
       <use xlink:href="#DejaVuSans-72"/>
       <use x="38.863281" xlink:href="#DejaVuSans-65"/>
       <use x="100.386719" xlink:href="#DejaVuSans-70"/>
       <use x="163.863281" xlink:href="#DejaVuSans-72"/>
       <use x="202.726562" xlink:href="#DejaVuSans-65"/>
       <use x="264.25" xlink:href="#DejaVuSans-73"/>
       <use x="316.349609" xlink:href="#DejaVuSans-65"/>
       <use x="377.873047" xlink:href="#DejaVuSans-6e"/>
       <use x="441.251953" xlink:href="#DejaVuSans-74"/>
       <use x="480.460938" xlink:href="#DejaVuSans-61"/>
       <use x="541.740234" xlink:href="#DejaVuSans-74"/>
       <use x="580.949219" xlink:href="#DejaVuSans-69"/>
       <use x="608.732422" xlink:href="#DejaVuSans-6f"/>
       <use x="669.914062" xlink:href="#DejaVuSans-6e"/>
      </g>
     </g>
    </g>
    <g id="xtick_25">
     <g id="line2d_25">
      <g>
       <use style="stroke:#000000;stroke-width:0.8;" x="1228.909091" xlink:href="#m81698932bb" y="961.2"/>
      </g>
     </g>
     <g id="text_25">
      <!-- make -->
      <g transform="translate(1214.924662 1005.744417)rotate(-40)scale(0.16 -0.16)">
       <use xlink:href="#DejaVuSans-6d"/>
       <use x="97.412109" xlink:href="#DejaVuSans-61"/>
       <use x="158.691406" xlink:href="#DejaVuSans-6b"/>
       <use x="212.976562" xlink:href="#DejaVuSans-65"/>
      </g>
     </g>
    </g>
    <g id="text_26">
     <!-- Words -->
     <g transform="translate(709.5375 1071.636361)scale(0.16 -0.16)">
      <defs>
       <path d="M 191 4666 
L 1344 4666 
L 2150 1275 
L 2950 4666 
L 4109 4666 
L 4909 1275 
L 5716 4666 
L 6859 4666 
L 5759 0 
L 4372 0 
L 3525 3547 
L 2688 0 
L 1300 0 
L 191 4666 
z
" id="DejaVuSans-Bold-57" transform="scale(0.015625)"/>
       <path d="M 2203 2784 
Q 1831 2784 1636 2517 
Q 1441 2250 1441 1747 
Q 1441 1244 1636 976 
Q 1831 709 2203 709 
Q 2569 709 2762 976 
Q 2956 1244 2956 1747 
Q 2956 2250 2762 2517 
Q 2569 2784 2203 2784 
z
M 2203 3584 
Q 3106 3584 3614 3096 
Q 4122 2609 4122 1747 
Q 4122 884 3614 396 
Q 3106 -91 2203 -91 
Q 1297 -91 786 396 
Q 275 884 275 1747 
Q 275 2609 786 3096 
Q 1297 3584 2203 3584 
z
" id="DejaVuSans-Bold-6f" transform="scale(0.015625)"/>
       <path d="M 3138 2547 
Q 2991 2616 2845 2648 
Q 2700 2681 2553 2681 
Q 2122 2681 1889 2404 
Q 1656 2128 1656 1613 
L 1656 0 
L 538 0 
L 538 3500 
L 1656 3500 
L 1656 2925 
Q 1872 3269 2151 3426 
Q 2431 3584 2822 3584 
Q 2878 3584 2943 3579 
Q 3009 3575 3134 3559 
L 3138 2547 
z
" id="DejaVuSans-Bold-72" transform="scale(0.015625)"/>
       <path d="M 2919 2988 
L 2919 4863 
L 4044 4863 
L 4044 0 
L 2919 0 
L 2919 506 
Q 2688 197 2409 53 
Q 2131 -91 1766 -91 
Q 1119 -91 703 423 
Q 288 938 288 1747 
Q 288 2556 703 3070 
Q 1119 3584 1766 3584 
Q 2128 3584 2408 3439 
Q 2688 3294 2919 2988 
z
M 2181 722 
Q 2541 722 2730 984 
Q 2919 1247 2919 1747 
Q 2919 2247 2730 2509 
Q 2541 2772 2181 2772 
Q 1825 2772 1636 2509 
Q 1447 2247 1447 1747 
Q 1447 1247 1636 984 
Q 1825 722 2181 722 
z
" id="DejaVuSans-Bold-64" transform="scale(0.015625)"/>
       <path d="M 3272 3391 
L 3272 2541 
Q 2913 2691 2578 2766 
Q 2244 2841 1947 2841 
Q 1628 2841 1473 2761 
Q 1319 2681 1319 2516 
Q 1319 2381 1436 2309 
Q 1553 2238 1856 2203 
L 2053 2175 
Q 2913 2066 3209 1816 
Q 3506 1566 3506 1031 
Q 3506 472 3093 190 
Q 2681 -91 1863 -91 
Q 1516 -91 1145 -36 
Q 775 19 384 128 
L 384 978 
Q 719 816 1070 734 
Q 1422 653 1784 653 
Q 2113 653 2278 743 
Q 2444 834 2444 1013 
Q 2444 1163 2330 1236 
Q 2216 1309 1875 1350 
L 1678 1375 
Q 931 1469 631 1722 
Q 331 1975 331 2491 
Q 331 3047 712 3315 
Q 1094 3584 1881 3584 
Q 2191 3584 2531 3537 
Q 2872 3491 3272 3391 
z
" id="DejaVuSans-Bold-73" transform="scale(0.015625)"/>
      </defs>
      <use xlink:href="#DejaVuSans-Bold-57"/>
      <use x="106.677734" xlink:href="#DejaVuSans-Bold-6f"/>
      <use x="175.378906" xlink:href="#DejaVuSans-Bold-72"/>
      <use x="224.695312" xlink:href="#DejaVuSans-Bold-64"/>
      <use x="296.277344" xlink:href="#DejaVuSans-Bold-73"/>
     </g>
    </g>
   </g>
   <g id="matplotlib.axis_2">
    <g id="ytick_1">
     <g id="line2d_26">
      <defs>
       <path d="M 0 0 
L -3.5 0 
" id="mc1e19717df" style="stroke:#000000;stroke-width:0.8;"/>
      </defs>
      <g>
       <use style="stroke:#000000;stroke-width:0.8;" x="180" xlink:href="#mc1e19717df" y="961.2"/>
      </g>
     </g>
     <g id="text_27">
      <!-- 0 -->
      <g transform="translate(164.0925 966.518906)scale(0.14 -0.14)">
       <defs>
        <path d="M 2034 4250 
Q 1547 4250 1301 3770 
Q 1056 3291 1056 2328 
Q 1056 1369 1301 889 
Q 1547 409 2034 409 
Q 2525 409 2770 889 
Q 3016 1369 3016 2328 
Q 3016 3291 2770 3770 
Q 2525 4250 2034 4250 
z
M 2034 4750 
Q 2819 4750 3233 4129 
Q 3647 3509 3647 2328 
Q 3647 1150 3233 529 
Q 2819 -91 2034 -91 
Q 1250 -91 836 529 
Q 422 1150 422 2328 
Q 422 3509 836 4129 
Q 1250 4750 2034 4750 
z
" id="DejaVuSans-30" transform="scale(0.015625)"/>
       </defs>
       <use xlink:href="#DejaVuSans-30"/>
      </g>
     </g>
    </g>
    <g id="ytick_2">
     <g id="line2d_27">
      <g>
       <use style="stroke:#000000;stroke-width:0.8;" x="180" xlink:href="#mc1e19717df" y="851.996277"/>
      </g>
     </g>
     <g id="text_28">
      <!-- 2000 -->
      <g transform="translate(137.37 857.315183)scale(0.14 -0.14)">
       <defs>
        <path d="M 1228 531 
L 3431 531 
L 3431 0 
L 469 0 
L 469 531 
Q 828 903 1448 1529 
Q 2069 2156 2228 2338 
Q 2531 2678 2651 2914 
Q 2772 3150 2772 3378 
Q 2772 3750 2511 3984 
Q 2250 4219 1831 4219 
Q 1534 4219 1204 4116 
Q 875 4013 500 3803 
L 500 4441 
Q 881 4594 1212 4672 
Q 1544 4750 1819 4750 
Q 2544 4750 2975 4387 
Q 3406 4025 3406 3419 
Q 3406 3131 3298 2873 
Q 3191 2616 2906 2266 
Q 2828 2175 2409 1742 
Q 1991 1309 1228 531 
z
" id="DejaVuSans-32" transform="scale(0.015625)"/>
       </defs>
       <use xlink:href="#DejaVuSans-32"/>
       <use x="63.623047" xlink:href="#DejaVuSans-30"/>
       <use x="127.246094" xlink:href="#DejaVuSans-30"/>
       <use x="190.869141" xlink:href="#DejaVuSans-30"/>
      </g>
     </g>
    </g>
    <g id="ytick_3">
     <g id="line2d_28">
      <g>
       <use style="stroke:#000000;stroke-width:0.8;" x="180" xlink:href="#mc1e19717df" y="742.792554"/>
      </g>
     </g>
     <g id="text_29">
      <!-- 4000 -->
      <g transform="translate(137.37 748.111461)scale(0.14 -0.14)">
       <defs>
        <path d="M 2419 4116 
L 825 1625 
L 2419 1625 
L 2419 4116 
z
M 2253 4666 
L 3047 4666 
L 3047 1625 
L 3713 1625 
L 3713 1100 
L 3047 1100 
L 3047 0 
L 2419 0 
L 2419 1100 
L 313 1100 
L 313 1709 
L 2253 4666 
z
" id="DejaVuSans-34" transform="scale(0.015625)"/>
       </defs>
       <use xlink:href="#DejaVuSans-34"/>
       <use x="63.623047" xlink:href="#DejaVuSans-30"/>
       <use x="127.246094" xlink:href="#DejaVuSans-30"/>
       <use x="190.869141" xlink:href="#DejaVuSans-30"/>
      </g>
     </g>
    </g>
    <g id="ytick_4">
     <g id="line2d_29">
      <g>
       <use style="stroke:#000000;stroke-width:0.8;" x="180" xlink:href="#mc1e19717df" y="633.588831"/>
      </g>
     </g>
     <g id="text_30">
      <!-- 6000 -->
      <g transform="translate(137.37 638.907738)scale(0.14 -0.14)">
       <defs>
        <path d="M 2113 2584 
Q 1688 2584 1439 2293 
Q 1191 2003 1191 1497 
Q 1191 994 1439 701 
Q 1688 409 2113 409 
Q 2538 409 2786 701 
Q 3034 994 3034 1497 
Q 3034 2003 2786 2293 
Q 2538 2584 2113 2584 
z
M 3366 4563 
L 3366 3988 
Q 3128 4100 2886 4159 
Q 2644 4219 2406 4219 
Q 1781 4219 1451 3797 
Q 1122 3375 1075 2522 
Q 1259 2794 1537 2939 
Q 1816 3084 2150 3084 
Q 2853 3084 3261 2657 
Q 3669 2231 3669 1497 
Q 3669 778 3244 343 
Q 2819 -91 2113 -91 
Q 1303 -91 875 529 
Q 447 1150 447 2328 
Q 447 3434 972 4092 
Q 1497 4750 2381 4750 
Q 2619 4750 2861 4703 
Q 3103 4656 3366 4563 
z
" id="DejaVuSans-36" transform="scale(0.015625)"/>
       </defs>
       <use xlink:href="#DejaVuSans-36"/>
       <use x="63.623047" xlink:href="#DejaVuSans-30"/>
       <use x="127.246094" xlink:href="#DejaVuSans-30"/>
       <use x="190.869141" xlink:href="#DejaVuSans-30"/>
      </g>
     </g>
    </g>
    <g id="ytick_5">
     <g id="line2d_30">
      <g>
       <use style="stroke:#000000;stroke-width:0.8;" x="180" xlink:href="#mc1e19717df" y="524.385109"/>
      </g>
     </g>
     <g id="text_31">
      <!-- 8000 -->
      <g transform="translate(137.37 529.704015)scale(0.14 -0.14)">
       <defs>
        <path d="M 2034 2216 
Q 1584 2216 1326 1975 
Q 1069 1734 1069 1313 
Q 1069 891 1326 650 
Q 1584 409 2034 409 
Q 2484 409 2743 651 
Q 3003 894 3003 1313 
Q 3003 1734 2745 1975 
Q 2488 2216 2034 2216 
z
M 1403 2484 
Q 997 2584 770 2862 
Q 544 3141 544 3541 
Q 544 4100 942 4425 
Q 1341 4750 2034 4750 
Q 2731 4750 3128 4425 
Q 3525 4100 3525 3541 
Q 3525 3141 3298 2862 
Q 3072 2584 2669 2484 
Q 3125 2378 3379 2068 
Q 3634 1759 3634 1313 
Q 3634 634 3220 271 
Q 2806 -91 2034 -91 
Q 1263 -91 848 271 
Q 434 634 434 1313 
Q 434 1759 690 2068 
Q 947 2378 1403 2484 
z
M 1172 3481 
Q 1172 3119 1398 2916 
Q 1625 2713 2034 2713 
Q 2441 2713 2670 2916 
Q 2900 3119 2900 3481 
Q 2900 3844 2670 4047 
Q 2441 4250 2034 4250 
Q 1625 4250 1398 4047 
Q 1172 3844 1172 3481 
z
" id="DejaVuSans-38" transform="scale(0.015625)"/>
       </defs>
       <use xlink:href="#DejaVuSans-38"/>
       <use x="63.623047" xlink:href="#DejaVuSans-30"/>
       <use x="127.246094" xlink:href="#DejaVuSans-30"/>
       <use x="190.869141" xlink:href="#DejaVuSans-30"/>
      </g>
     </g>
    </g>
    <g id="ytick_6">
     <g id="line2d_31">
      <g>
       <use style="stroke:#000000;stroke-width:0.8;" x="180" xlink:href="#mc1e19717df" y="415.181386"/>
      </g>
     </g>
     <g id="text_32">
      <!-- 10000 -->
      <g transform="translate(128.4625 420.500292)scale(0.14 -0.14)">
       <defs>
        <path d="M 794 531 
L 1825 531 
L 1825 4091 
L 703 3866 
L 703 4441 
L 1819 4666 
L 2450 4666 
L 2450 531 
L 3481 531 
L 3481 0 
L 794 0 
L 794 531 
z
" id="DejaVuSans-31" transform="scale(0.015625)"/>
       </defs>
       <use xlink:href="#DejaVuSans-31"/>
       <use x="63.623047" xlink:href="#DejaVuSans-30"/>
       <use x="127.246094" xlink:href="#DejaVuSans-30"/>
       <use x="190.869141" xlink:href="#DejaVuSans-30"/>
       <use x="254.492188" xlink:href="#DejaVuSans-30"/>
      </g>
     </g>
    </g>
    <g id="ytick_7">
     <g id="line2d_32">
      <g>
       <use style="stroke:#000000;stroke-width:0.8;" x="180" xlink:href="#mc1e19717df" y="305.977663"/>
      </g>
     </g>
     <g id="text_33">
      <!-- 12000 -->
      <g transform="translate(128.4625 311.296569)scale(0.14 -0.14)">
       <use xlink:href="#DejaVuSans-31"/>
       <use x="63.623047" xlink:href="#DejaVuSans-32"/>
       <use x="127.246094" xlink:href="#DejaVuSans-30"/>
       <use x="190.869141" xlink:href="#DejaVuSans-30"/>
       <use x="254.492188" xlink:href="#DejaVuSans-30"/>
      </g>
     </g>
    </g>
    <g id="ytick_8">
     <g id="line2d_33">
      <g>
       <use style="stroke:#000000;stroke-width:0.8;" x="180" xlink:href="#mc1e19717df" y="196.77394"/>
      </g>
     </g>
     <g id="text_34">
      <!-- 14000 -->
      <g transform="translate(128.4625 202.092846)scale(0.14 -0.14)">
       <use xlink:href="#DejaVuSans-31"/>
       <use x="63.623047" xlink:href="#DejaVuSans-34"/>
       <use x="127.246094" xlink:href="#DejaVuSans-30"/>
       <use x="190.869141" xlink:href="#DejaVuSans-30"/>
       <use x="254.492188" xlink:href="#DejaVuSans-30"/>
      </g>
     </g>
    </g>
    <g id="text_35">
     <!-- Frequency -->
     <g transform="translate(121.01 592.22625)rotate(-90)scale(0.16 -0.16)">
      <defs>
       <path d="M 588 4666 
L 3834 4666 
L 3834 3756 
L 1791 3756 
L 1791 2888 
L 3713 2888 
L 3713 1978 
L 1791 1978 
L 1791 0 
L 588 0 
L 588 4666 
z
" id="DejaVuSans-Bold-46" transform="scale(0.015625)"/>
       <path d="M 4031 1759 
L 4031 1441 
L 1416 1441 
Q 1456 1047 1700 850 
Q 1944 653 2381 653 
Q 2734 653 3104 758 
Q 3475 863 3866 1075 
L 3866 213 
Q 3469 63 3072 -14 
Q 2675 -91 2278 -91 
Q 1328 -91 801 392 
Q 275 875 275 1747 
Q 275 2603 792 3093 
Q 1309 3584 2216 3584 
Q 3041 3584 3536 3087 
Q 4031 2591 4031 1759 
z
M 2881 2131 
Q 2881 2450 2695 2645 
Q 2509 2841 2209 2841 
Q 1884 2841 1681 2658 
Q 1478 2475 1428 2131 
L 2881 2131 
z
" id="DejaVuSans-Bold-65" transform="scale(0.015625)"/>
       <path d="M 2181 2772 
Q 1825 2772 1636 2509 
Q 1447 2247 1447 1747 
Q 1447 1247 1636 984 
Q 1825 722 2181 722 
Q 2541 722 2730 984 
Q 2919 1247 2919 1747 
Q 2919 2247 2730 2509 
Q 2541 2772 2181 2772 
z
M 2919 506 
Q 2688 197 2409 53 
Q 2131 -91 1766 -91 
Q 1119 -91 703 423 
Q 288 938 288 1747 
Q 288 2556 703 3067 
Q 1119 3578 1766 3578 
Q 2131 3578 2409 3434 
Q 2688 3291 2919 2981 
L 2919 3500 
L 4044 3500 
L 4044 -1331 
L 2919 -1331 
L 2919 506 
z
" id="DejaVuSans-Bold-71" transform="scale(0.015625)"/>
       <path d="M 500 1363 
L 500 3500 
L 1625 3500 
L 1625 3150 
Q 1625 2866 1622 2436 
Q 1619 2006 1619 1863 
Q 1619 1441 1641 1255 
Q 1663 1069 1716 984 
Q 1784 875 1895 815 
Q 2006 756 2150 756 
Q 2500 756 2700 1025 
Q 2900 1294 2900 1772 
L 2900 3500 
L 4019 3500 
L 4019 0 
L 2900 0 
L 2900 506 
Q 2647 200 2364 54 
Q 2081 -91 1741 -91 
Q 1134 -91 817 281 
Q 500 653 500 1363 
z
" id="DejaVuSans-Bold-75" transform="scale(0.015625)"/>
       <path d="M 4056 2131 
L 4056 0 
L 2931 0 
L 2931 347 
L 2931 1631 
Q 2931 2084 2911 2256 
Q 2891 2428 2841 2509 
Q 2775 2619 2662 2680 
Q 2550 2741 2406 2741 
Q 2056 2741 1856 2470 
Q 1656 2200 1656 1722 
L 1656 0 
L 538 0 
L 538 3500 
L 1656 3500 
L 1656 2988 
Q 1909 3294 2193 3439 
Q 2478 3584 2822 3584 
Q 3428 3584 3742 3212 
Q 4056 2841 4056 2131 
z
" id="DejaVuSans-Bold-6e" transform="scale(0.015625)"/>
       <path d="M 3366 3391 
L 3366 2478 
Q 3138 2634 2908 2709 
Q 2678 2784 2431 2784 
Q 1963 2784 1702 2511 
Q 1441 2238 1441 1747 
Q 1441 1256 1702 982 
Q 1963 709 2431 709 
Q 2694 709 2930 787 
Q 3166 866 3366 1019 
L 3366 103 
Q 3103 6 2833 -42 
Q 2563 -91 2291 -91 
Q 1344 -91 809 395 
Q 275 881 275 1747 
Q 275 2613 809 3098 
Q 1344 3584 2291 3584 
Q 2566 3584 2833 3536 
Q 3100 3488 3366 3391 
z
" id="DejaVuSans-Bold-63" transform="scale(0.015625)"/>
       <path d="M 78 3500 
L 1197 3500 
L 2138 1125 
L 2938 3500 
L 4056 3500 
L 2584 -331 
Q 2363 -916 2067 -1148 
Q 1772 -1381 1288 -1381 
L 641 -1381 
L 641 -647 
L 991 -647 
Q 1275 -647 1404 -556 
Q 1534 -466 1606 -231 
L 1638 -134 
L 78 3500 
z
" id="DejaVuSans-Bold-79" transform="scale(0.015625)"/>
      </defs>
      <use xlink:href="#DejaVuSans-Bold-46"/>
      <use x="61.935547" xlink:href="#DejaVuSans-Bold-72"/>
      <use x="111.251953" xlink:href="#DejaVuSans-Bold-65"/>
      <use x="179.074219" xlink:href="#DejaVuSans-Bold-71"/>
      <use x="250.65625" xlink:href="#DejaVuSans-Bold-75"/>
      <use x="321.847656" xlink:href="#DejaVuSans-Bold-65"/>
      <use x="389.669922" xlink:href="#DejaVuSans-Bold-6e"/>
      <use x="460.861328" xlink:href="#DejaVuSans-Bold-63"/>
      <use x="520.138672" xlink:href="#DejaVuSans-Bold-79"/>
     </g>
    </g>
   </g>
   <g id="line2d_34">
    <path clip-path="url(#p7f121da2e2)" d="M 180 913.914788 
L 1296 913.914788 
" style="fill:none;stroke:#ff556b;stroke-linecap:square;stroke-width:1.5;"/>
   </g>
   <g id="patch_28">
    <path d="M 180 961.2 
L 180 129.6 
" style="fill:none;stroke:#000000;stroke-linecap:square;stroke-linejoin:miter;stroke-width:0.8;"/>
   </g>
   <g id="patch_29">
    <path d="M 1296 961.2 
L 1296 129.6 
" style="fill:none;stroke:#000000;stroke-linecap:square;stroke-linejoin:miter;stroke-width:0.8;"/>
   </g>
   <g id="patch_30">
    <path d="M 180 961.2 
L 1296 961.2 
" style="fill:none;stroke:#000000;stroke-linecap:square;stroke-linejoin:miter;stroke-width:0.8;"/>
   </g>
   <g id="patch_31">
    <path d="M 180 129.6 
L 1296 129.6 
" style="fill:none;stroke:#000000;stroke-linecap:square;stroke-linejoin:miter;stroke-width:0.8;"/>
   </g>
   <g id="text_36">
    <!-- Most frequent words in preprocessed readmes for Natural Language Processing category -->
    <g transform="translate(282.697031 123.6)scale(0.18 -0.18)">
     <defs>
      <path d="M 588 4666 
L 2119 4666 
L 3181 2169 
L 4250 4666 
L 5778 4666 
L 5778 0 
L 4641 0 
L 4641 3413 
L 3566 897 
L 2803 897 
L 1728 3413 
L 1728 0 
L 588 0 
L 588 4666 
z
" id="DejaVuSans-Bold-4d" transform="scale(0.015625)"/>
      <path d="M 1759 4494 
L 1759 3500 
L 2913 3500 
L 2913 2700 
L 1759 2700 
L 1759 1216 
Q 1759 972 1856 886 
Q 1953 800 2241 800 
L 2816 800 
L 2816 0 
L 1856 0 
Q 1194 0 917 276 
Q 641 553 641 1216 
L 641 2700 
L 84 2700 
L 84 3500 
L 641 3500 
L 641 4494 
L 1759 4494 
z
" id="DejaVuSans-Bold-74" transform="scale(0.015625)"/>
      <path id="DejaVuSans-Bold-20" transform="scale(0.015625)"/>
      <path d="M 2841 4863 
L 2841 4128 
L 2222 4128 
Q 1984 4128 1890 4042 
Q 1797 3956 1797 3744 
L 1797 3500 
L 2753 3500 
L 2753 2700 
L 1797 2700 
L 1797 0 
L 678 0 
L 678 2700 
L 122 2700 
L 122 3500 
L 678 3500 
L 678 3744 
Q 678 4316 997 4589 
Q 1316 4863 1984 4863 
L 2841 4863 
z
" id="DejaVuSans-Bold-66" transform="scale(0.015625)"/>
      <path d="M 225 3500 
L 1313 3500 
L 1900 1088 
L 2491 3500 
L 3425 3500 
L 4013 1113 
L 4603 3500 
L 5691 3500 
L 4769 0 
L 3547 0 
L 2956 2406 
L 2369 0 
L 1147 0 
L 225 3500 
z
" id="DejaVuSans-Bold-77" transform="scale(0.015625)"/>
      <path d="M 538 3500 
L 1656 3500 
L 1656 0 
L 538 0 
L 538 3500 
z
M 538 4863 
L 1656 4863 
L 1656 3950 
L 538 3950 
L 538 4863 
z
" id="DejaVuSans-Bold-69" transform="scale(0.015625)"/>
      <path d="M 1656 506 
L 1656 -1331 
L 538 -1331 
L 538 3500 
L 1656 3500 
L 1656 2988 
Q 1888 3294 2169 3439 
Q 2450 3584 2816 3584 
Q 3463 3584 3878 3070 
Q 4294 2556 4294 1747 
Q 4294 938 3878 423 
Q 3463 -91 2816 -91 
Q 2450 -91 2169 54 
Q 1888 200 1656 506 
z
M 2400 2772 
Q 2041 2772 1848 2508 
Q 1656 2244 1656 1747 
Q 1656 1250 1848 986 
Q 2041 722 2400 722 
Q 2759 722 2948 984 
Q 3138 1247 3138 1747 
Q 3138 2247 2948 2509 
Q 2759 2772 2400 2772 
z
" id="DejaVuSans-Bold-70" transform="scale(0.015625)"/>
      <path d="M 2106 1575 
Q 1756 1575 1579 1456 
Q 1403 1338 1403 1106 
Q 1403 894 1545 773 
Q 1688 653 1941 653 
Q 2256 653 2472 879 
Q 2688 1106 2688 1447 
L 2688 1575 
L 2106 1575 
z
M 3816 1997 
L 3816 0 
L 2688 0 
L 2688 519 
Q 2463 200 2181 54 
Q 1900 -91 1497 -91 
Q 953 -91 614 226 
Q 275 544 275 1050 
Q 275 1666 698 1953 
Q 1122 2241 2028 2241 
L 2688 2241 
L 2688 2328 
Q 2688 2594 2478 2717 
Q 2269 2841 1825 2841 
Q 1466 2841 1156 2769 
Q 847 2697 581 2553 
L 581 3406 
Q 941 3494 1303 3539 
Q 1666 3584 2028 3584 
Q 2975 3584 3395 3211 
Q 3816 2838 3816 1997 
z
" id="DejaVuSans-Bold-61" transform="scale(0.015625)"/>
      <path d="M 3781 2919 
Q 3994 3244 4286 3414 
Q 4578 3584 4928 3584 
Q 5531 3584 5847 3212 
Q 6163 2841 6163 2131 
L 6163 0 
L 5038 0 
L 5038 1825 
Q 5041 1866 5042 1909 
Q 5044 1953 5044 2034 
Q 5044 2406 4934 2573 
Q 4825 2741 4581 2741 
Q 4263 2741 4089 2478 
Q 3916 2216 3909 1719 
L 3909 0 
L 2784 0 
L 2784 1825 
Q 2784 2406 2684 2573 
Q 2584 2741 2328 2741 
Q 2006 2741 1831 2477 
Q 1656 2213 1656 1722 
L 1656 0 
L 531 0 
L 531 3500 
L 1656 3500 
L 1656 2988 
Q 1863 3284 2130 3434 
Q 2397 3584 2719 3584 
Q 3081 3584 3359 3409 
Q 3638 3234 3781 2919 
z
" id="DejaVuSans-Bold-6d" transform="scale(0.015625)"/>
      <path d="M 588 4666 
L 1931 4666 
L 3628 1466 
L 3628 4666 
L 4769 4666 
L 4769 0 
L 3425 0 
L 1728 3200 
L 1728 0 
L 588 0 
L 588 4666 
z
" id="DejaVuSans-Bold-4e" transform="scale(0.015625)"/>
      <path d="M 538 4863 
L 1656 4863 
L 1656 0 
L 538 0 
L 538 4863 
z
" id="DejaVuSans-Bold-6c" transform="scale(0.015625)"/>
      <path d="M 588 4666 
L 1791 4666 
L 1791 909 
L 3903 909 
L 3903 0 
L 588 0 
L 588 4666 
z
" id="DejaVuSans-Bold-4c" transform="scale(0.015625)"/>
      <path d="M 2919 594 
Q 2688 288 2409 144 
Q 2131 0 1766 0 
Q 1125 0 706 504 
Q 288 1009 288 1791 
Q 288 2575 706 3076 
Q 1125 3578 1766 3578 
Q 2131 3578 2409 3434 
Q 2688 3291 2919 2981 
L 2919 3500 
L 4044 3500 
L 4044 353 
Q 4044 -491 3511 -936 
Q 2978 -1381 1966 -1381 
Q 1638 -1381 1331 -1331 
Q 1025 -1281 716 -1178 
L 716 -306 
Q 1009 -475 1290 -558 
Q 1572 -641 1856 -641 
Q 2406 -641 2662 -400 
Q 2919 -159 2919 353 
L 2919 594 
z
M 2181 2772 
Q 1834 2772 1640 2515 
Q 1447 2259 1447 1791 
Q 1447 1309 1634 1061 
Q 1822 813 2181 813 
Q 2531 813 2725 1069 
Q 2919 1325 2919 1791 
Q 2919 2259 2725 2515 
Q 2531 2772 2181 2772 
z
" id="DejaVuSans-Bold-67" transform="scale(0.015625)"/>
      <path d="M 588 4666 
L 2584 4666 
Q 3475 4666 3951 4270 
Q 4428 3875 4428 3144 
Q 4428 2409 3951 2014 
Q 3475 1619 2584 1619 
L 1791 1619 
L 1791 0 
L 588 0 
L 588 4666 
z
M 1791 3794 
L 1791 2491 
L 2456 2491 
Q 2806 2491 2997 2661 
Q 3188 2831 3188 3144 
Q 3188 3456 2997 3625 
Q 2806 3794 2456 3794 
L 1791 3794 
z
" id="DejaVuSans-Bold-50" transform="scale(0.015625)"/>
     </defs>
     <use xlink:href="#DejaVuSans-Bold-4d"/>
     <use x="99.511719" xlink:href="#DejaVuSans-Bold-6f"/>
     <use x="168.212891" xlink:href="#DejaVuSans-Bold-73"/>
     <use x="227.734375" xlink:href="#DejaVuSans-Bold-74"/>
     <use x="275.537109" xlink:href="#DejaVuSans-Bold-20"/>
     <use x="310.351562" xlink:href="#DejaVuSans-Bold-66"/>
     <use x="353.857422" xlink:href="#DejaVuSans-Bold-72"/>
     <use x="403.173828" xlink:href="#DejaVuSans-Bold-65"/>
     <use x="470.996094" xlink:href="#DejaVuSans-Bold-71"/>
     <use x="542.578125" xlink:href="#DejaVuSans-Bold-75"/>
     <use x="613.769531" xlink:href="#DejaVuSans-Bold-65"/>
     <use x="681.591797" xlink:href="#DejaVuSans-Bold-6e"/>
     <use x="752.783203" xlink:href="#DejaVuSans-Bold-74"/>
     <use x="800.585938" xlink:href="#DejaVuSans-Bold-20"/>
     <use x="835.400391" xlink:href="#DejaVuSans-Bold-77"/>
     <use x="927.783203" xlink:href="#DejaVuSans-Bold-6f"/>
     <use x="996.484375" xlink:href="#DejaVuSans-Bold-72"/>
     <use x="1045.800781" xlink:href="#DejaVuSans-Bold-64"/>
     <use x="1117.382812" xlink:href="#DejaVuSans-Bold-73"/>
     <use x="1176.904297" xlink:href="#DejaVuSans-Bold-20"/>
     <use x="1211.71875" xlink:href="#DejaVuSans-Bold-69"/>
     <use x="1245.996094" xlink:href="#DejaVuSans-Bold-6e"/>
     <use x="1317.1875" xlink:href="#DejaVuSans-Bold-20"/>
     <use x="1352.001953" xlink:href="#DejaVuSans-Bold-70"/>
     <use x="1423.583984" xlink:href="#DejaVuSans-Bold-72"/>
     <use x="1472.900391" xlink:href="#DejaVuSans-Bold-65"/>
     <use x="1540.722656" xlink:href="#DejaVuSans-Bold-70"/>
     <use x="1612.304688" xlink:href="#DejaVuSans-Bold-72"/>
     <use x="1661.621094" xlink:href="#DejaVuSans-Bold-6f"/>
     <use x="1730.322266" xlink:href="#DejaVuSans-Bold-63"/>
     <use x="1789.599609" xlink:href="#DejaVuSans-Bold-65"/>
     <use x="1857.421875" xlink:href="#DejaVuSans-Bold-73"/>
     <use x="1916.943359" xlink:href="#DejaVuSans-Bold-73"/>
     <use x="1976.464844" xlink:href="#DejaVuSans-Bold-65"/>
     <use x="2044.287109" xlink:href="#DejaVuSans-Bold-64"/>
     <use x="2115.869141" xlink:href="#DejaVuSans-Bold-20"/>
     <use x="2150.683594" xlink:href="#DejaVuSans-Bold-72"/>
     <use x="2200" xlink:href="#DejaVuSans-Bold-65"/>
     <use x="2267.822266" xlink:href="#DejaVuSans-Bold-61"/>
     <use x="2335.302734" xlink:href="#DejaVuSans-Bold-64"/>
     <use x="2406.884766" xlink:href="#DejaVuSans-Bold-6d"/>
     <use x="2511.083984" xlink:href="#DejaVuSans-Bold-65"/>
     <use x="2578.90625" xlink:href="#DejaVuSans-Bold-73"/>
     <use x="2638.427734" xlink:href="#DejaVuSans-Bold-20"/>
     <use x="2673.242188" xlink:href="#DejaVuSans-Bold-66"/>
     <use x="2716.748047" xlink:href="#DejaVuSans-Bold-6f"/>
     <use x="2785.449219" xlink:href="#DejaVuSans-Bold-72"/>
     <use x="2834.765625" xlink:href="#DejaVuSans-Bold-20"/>
     <use x="2869.580078" xlink:href="#DejaVuSans-Bold-4e"/>
     <use x="2953.271484" xlink:href="#DejaVuSans-Bold-61"/>
     <use x="3020.751953" xlink:href="#DejaVuSans-Bold-74"/>
     <use x="3068.554688" xlink:href="#DejaVuSans-Bold-75"/>
     <use x="3139.746094" xlink:href="#DejaVuSans-Bold-72"/>
     <use x="3189.0625" xlink:href="#DejaVuSans-Bold-61"/>
     <use x="3256.542969" xlink:href="#DejaVuSans-Bold-6c"/>
     <use x="3290.820312" xlink:href="#DejaVuSans-Bold-20"/>
     <use x="3325.634766" xlink:href="#DejaVuSans-Bold-4c"/>
     <use x="3389.355469" xlink:href="#DejaVuSans-Bold-61"/>
     <use x="3456.835938" xlink:href="#DejaVuSans-Bold-6e"/>
     <use x="3528.027344" xlink:href="#DejaVuSans-Bold-67"/>
     <use x="3599.609375" xlink:href="#DejaVuSans-Bold-75"/>
     <use x="3670.800781" xlink:href="#DejaVuSans-Bold-61"/>
     <use x="3738.28125" xlink:href="#DejaVuSans-Bold-67"/>
     <use x="3809.863281" xlink:href="#DejaVuSans-Bold-65"/>
     <use x="3877.685547" xlink:href="#DejaVuSans-Bold-20"/>
     <use x="3912.5" xlink:href="#DejaVuSans-Bold-50"/>
     <use x="3985.791016" xlink:href="#DejaVuSans-Bold-72"/>
     <use x="4035.107422" xlink:href="#DejaVuSans-Bold-6f"/>
     <use x="4103.808594" xlink:href="#DejaVuSans-Bold-63"/>
     <use x="4163.085938" xlink:href="#DejaVuSans-Bold-65"/>
     <use x="4230.908203" xlink:href="#DejaVuSans-Bold-73"/>
     <use x="4290.429688" xlink:href="#DejaVuSans-Bold-73"/>
     <use x="4349.951172" xlink:href="#DejaVuSans-Bold-69"/>
     <use x="4384.228516" xlink:href="#DejaVuSans-Bold-6e"/>
     <use x="4455.419922" xlink:href="#DejaVuSans-Bold-67"/>
     <use x="4527.001953" xlink:href="#DejaVuSans-Bold-20"/>
     <use x="4561.816406" xlink:href="#DejaVuSans-Bold-63"/>
     <use x="4621.09375" xlink:href="#DejaVuSans-Bold-61"/>
     <use x="4688.574219" xlink:href="#DejaVuSans-Bold-74"/>
     <use x="4736.376953" xlink:href="#DejaVuSans-Bold-65"/>
     <use x="4804.199219" xlink:href="#DejaVuSans-Bold-67"/>
     <use x="4875.78125" xlink:href="#DejaVuSans-Bold-6f"/>
     <use x="4944.482422" xlink:href="#DejaVuSans-Bold-72"/>
     <use x="4993.798828" xlink:href="#DejaVuSans-Bold-79"/>
    </g>
   </g>
   <g id="legend_1">
    <g id="patch_32">
     <path d="M 1104.571875 161.349375 
L 1286.2 161.349375 
Q 1289 161.349375 1289 158.549375 
L 1289 139.4 
Q 1289 136.6 1286.2 136.6 
L 1104.571875 136.6 
Q 1101.771875 136.6 1101.771875 139.4 
L 1101.771875 158.549375 
Q 1101.771875 161.349375 1104.571875 161.349375 
z
" style="fill:#ffffff;opacity:0.8;stroke:#cccccc;stroke-linejoin:miter;"/>
    </g>
    <g id="line2d_35">
     <path d="M 1107.371875 147.937813 
L 1135.371875 147.937813 
" style="fill:none;stroke:#ff556b;stroke-linecap:square;stroke-width:1.5;"/>
    </g>
    <g id="line2d_36"/>
    <g id="text_37">
     <!-- Number of samples -->
     <g transform="translate(1146.571875 152.837813)scale(0.14 -0.14)">
      <defs>
       <path d="M 628 4666 
L 1478 4666 
L 3547 763 
L 3547 4666 
L 4159 4666 
L 4159 0 
L 3309 0 
L 1241 3903 
L 1241 0 
L 628 0 
L 628 4666 
z
" id="DejaVuSans-4e" transform="scale(0.015625)"/>
       <path id="DejaVuSans-20" transform="scale(0.015625)"/>
      </defs>
      <use xlink:href="#DejaVuSans-4e"/>
      <use x="74.804688" xlink:href="#DejaVuSans-75"/>
      <use x="138.183594" xlink:href="#DejaVuSans-6d"/>
      <use x="235.595703" xlink:href="#DejaVuSans-62"/>
      <use x="299.072266" xlink:href="#DejaVuSans-65"/>
      <use x="360.595703" xlink:href="#DejaVuSans-72"/>
      <use x="401.708984" xlink:href="#DejaVuSans-20"/>
      <use x="433.496094" xlink:href="#DejaVuSans-6f"/>
      <use x="494.677734" xlink:href="#DejaVuSans-66"/>
      <use x="529.882812" xlink:href="#DejaVuSans-20"/>
      <use x="561.669922" xlink:href="#DejaVuSans-73"/>
      <use x="613.769531" xlink:href="#DejaVuSans-61"/>
      <use x="675.048828" xlink:href="#DejaVuSans-6d"/>
      <use x="772.460938" xlink:href="#DejaVuSans-70"/>
      <use x="835.9375" xlink:href="#DejaVuSans-6c"/>
      <use x="863.720703" xlink:href="#DejaVuSans-65"/>
      <use x="925.244141" xlink:href="#DejaVuSans-73"/>
     </g>
    </g>
   </g>
  </g>
 </g>
 <defs>
  <clipPath id="p7f121da2e2">
   <rect height="831.6" width="1116" x="180" y="129.6"/>
  </clipPath>
 </defs>
</svg>
