<?xml version="1.0" encoding="utf-8" standalone="no"?>
<!DOCTYPE svg PUBLIC "-//W3C//DTD SVG 1.1//EN"
  "http://www.w3.org/Graphics/SVG/1.1/DTD/svg11.dtd">
<svg height="1080pt" version="1.1" viewBox="0 0 1440 1080" width="1440pt" xmlns="http://www.w3.org/2000/svg" xmlns:xlink="http://www.w3.org/1999/xlink">
 <metadata>
  <rdf:RDF xmlns:cc="http://creativecommons.org/ns#" xmlns:dc="http://purl.org/dc/elements/1.1/" xmlns:rdf="http://www.w3.org/1999/02/22-rdf-syntax-ns#">
   <cc:Work>
    <dc:type rdf:resource="http://purl.org/dc/dcmitype/StillImage"/>
    <dc:date>2022-04-18T18:19:20.474618</dc:date>
    <dc:format>image/svg+xml</dc:format>
    <dc:creator>
     <cc:Agent>
      <dc:title>Matplotlib v3.4.3, https://matplotlib.org/</dc:title>
     </cc:Agent>
    </dc:creator>
   </cc:Work>
  </rdf:RDF>
 </metadata>
 <defs>
  <style type="text/css">*{stroke-linecap:butt;stroke-linejoin:round;}</style>
 </defs>
 <g id="figure_1">
  <g id="patch_1">
   <path d="M 100 1080 
L 1310 1080 
L 1310 90 
L 100 90 
z
" style="fill:#ffffff;"/>
  </g>
  <g id="axes_1">
   <g id="patch_2">
    <path d="M 180 961.2 
L 1296 961.2 
L 1296 129.6 
L 180 129.6 
z
" style="fill:#ffffff;"/>
   </g>
   <g id="patch_3">
    <path clip-path="url(#pf2ddd04cef)" d="M 230.727273 961.2 
L 263.454545 961.2 
L 263.454545 169.2 
L 230.727273 169.2 
z
" style="fill:#00c7c3;"/>
   </g>
   <g id="patch_4">
    <path clip-path="url(#pf2ddd04cef)" d="M 271.636364 961.2 
L 304.363636 961.2 
L 304.363636 471.955814 
L 271.636364 471.955814 
z
" style="fill:#00c7c3;"/>
   </g>
   <g id="patch_5">
    <path clip-path="url(#pf2ddd04cef)" d="M 312.545455 961.2 
L 345.272727 961.2 
L 345.272727 711.397674 
L 312.545455 711.397674 
z
" style="fill:#00c7c3;"/>
   </g>
   <g id="patch_6">
    <path clip-path="url(#pf2ddd04cef)" d="M 353.454545 961.2 
L 386.181818 961.2 
L 386.181818 738.104651 
L 353.454545 738.104651 
z
" style="fill:#00c7c3;"/>
   </g>
   <g id="patch_7">
    <path clip-path="url(#pf2ddd04cef)" d="M 394.363636 961.2 
L 427.090909 961.2 
L 427.090909 750.076744 
L 394.363636 750.076744 
z
" style="fill:#00c7c3;"/>
   </g>
   <g id="patch_8">
    <path clip-path="url(#pf2ddd04cef)" d="M 435.272727 961.2 
L 468 961.2 
L 468 767.574419 
L 435.272727 767.574419 
z
" style="fill:#00c7c3;"/>
   </g>
   <g id="patch_9">
    <path clip-path="url(#pf2ddd04cef)" d="M 476.181818 961.2 
L 508.909091 961.2 
L 508.909091 770.797674 
L 476.181818 770.797674 
z
" style="fill:#00c7c3;"/>
   </g>
   <g id="patch_10">
    <path clip-path="url(#pf2ddd04cef)" d="M 517.090909 961.2 
L 549.818182 961.2 
L 549.818182 779.776744 
L 517.090909 779.776744 
z
" style="fill:#00c7c3;"/>
   </g>
   <g id="patch_11">
    <path clip-path="url(#pf2ddd04cef)" d="M 558 961.2 
L 590.727273 961.2 
L 590.727273 783.690698 
L 558 783.690698 
z
" style="fill:#00c7c3;"/>
   </g>
   <g id="patch_12">
    <path clip-path="url(#pf2ddd04cef)" d="M 598.909091 961.2 
L 631.636364 961.2 
L 631.636364 795.202326 
L 598.909091 795.202326 
z
" style="fill:#00c7c3;"/>
   </g>
   <g id="patch_13">
    <path clip-path="url(#pf2ddd04cef)" d="M 639.818182 961.2 
L 672.545455 961.2 
L 672.545455 796.123256 
L 639.818182 796.123256 
z
" style="fill:#00c7c3;"/>
   </g>
   <g id="patch_14">
    <path clip-path="url(#pf2ddd04cef)" d="M 680.727273 961.2 
L 713.454545 961.2 
L 713.454545 816.153488 
L 680.727273 816.153488 
z
" style="fill:#00c7c3;"/>
   </g>
   <g id="patch_15">
    <path clip-path="url(#pf2ddd04cef)" d="M 721.636364 961.2 
L 754.363636 961.2 
L 754.363636 824.211628 
L 721.636364 824.211628 
z
" style="fill:#00c7c3;"/>
   </g>
   <g id="patch_16">
    <path clip-path="url(#pf2ddd04cef)" d="M 762.545455 961.2 
L 795.272727 961.2 
L 795.272727 827.665116 
L 762.545455 827.665116 
z
" style="fill:#00c7c3;"/>
   </g>
   <g id="patch_17">
    <path clip-path="url(#pf2ddd04cef)" d="M 803.454545 961.2 
L 836.181818 961.2 
L 836.181818 833.651163 
L 803.454545 833.651163 
z
" style="fill:#00c7c3;"/>
   </g>
   <g id="patch_18">
    <path clip-path="url(#pf2ddd04cef)" d="M 844.363636 961.2 
L 877.090909 961.2 
L 877.090909 835.723256 
L 844.363636 835.723256 
z
" style="fill:#00c7c3;"/>
   </g>
   <g id="patch_19">
    <path clip-path="url(#pf2ddd04cef)" d="M 885.272727 961.2 
L 918 961.2 
L 918 836.413953 
L 885.272727 836.413953 
z
" style="fill:#00c7c3;"/>
   </g>
   <g id="patch_20">
    <path clip-path="url(#pf2ddd04cef)" d="M 926.181818 961.2 
L 958.909091 961.2 
L 958.909091 840.55814 
L 926.181818 840.55814 
z
" style="fill:#00c7c3;"/>
   </g>
   <g id="patch_21">
    <path clip-path="url(#pf2ddd04cef)" d="M 967.090909 961.2 
L 999.818182 961.2 
L 999.818182 840.788372 
L 967.090909 840.788372 
z
" style="fill:#00c7c3;"/>
   </g>
   <g id="patch_22">
    <path clip-path="url(#pf2ddd04cef)" d="M 1008 961.2 
L 1040.727273 961.2 
L 1040.727273 841.47907 
L 1008 841.47907 
z
" style="fill:#00c7c3;"/>
   </g>
   <g id="patch_23">
    <path clip-path="url(#pf2ddd04cef)" d="M 1048.909091 961.2 
L 1081.636364 961.2 
L 1081.636364 843.781395 
L 1048.909091 843.781395 
z
" style="fill:#00c7c3;"/>
   </g>
   <g id="patch_24">
    <path clip-path="url(#pf2ddd04cef)" d="M 1089.818182 961.2 
L 1122.545455 961.2 
L 1122.545455 846.313953 
L 1089.818182 846.313953 
z
" style="fill:#00c7c3;"/>
   </g>
   <g id="patch_25">
    <path clip-path="url(#pf2ddd04cef)" d="M 1130.727273 961.2 
L 1163.454545 961.2 
L 1163.454545 850.688372 
L 1130.727273 850.688372 
z
" style="fill:#00c7c3;"/>
   </g>
   <g id="patch_26">
    <path clip-path="url(#pf2ddd04cef)" d="M 1171.636364 961.2 
L 1204.363636 961.2 
L 1204.363636 855.062791 
L 1171.636364 855.062791 
z
" style="fill:#00c7c3;"/>
   </g>
   <g id="patch_27">
    <path clip-path="url(#pf2ddd04cef)" d="M 1212.545455 961.2 
L 1245.272727 961.2 
L 1245.272727 855.293023 
L 1212.545455 855.293023 
z
" style="fill:#00c7c3;"/>
   </g>
   <g id="matplotlib.axis_1">
    <g id="xtick_1">
     <g id="line2d_1">
      <defs>
       <path d="M 0 0 
L 0 3.5 
" id="mfad247c7c3" style="stroke:#000000;stroke-width:0.8;"/>
      </defs>
      <g>
       <use style="stroke:#000000;stroke-width:0.8;" x="247.090909" xlink:href="#mfad247c7c3" y="961.2"/>
      </g>
     </g>
     <g id="text_1">
      <!-- agent -->
      <g transform="translate(232.225529 1007.222829)rotate(-40)scale(0.16 -0.16)">
       <defs>
        <path d="M 2194 1759 
Q 1497 1759 1228 1600 
Q 959 1441 959 1056 
Q 959 750 1161 570 
Q 1363 391 1709 391 
Q 2188 391 2477 730 
Q 2766 1069 2766 1631 
L 2766 1759 
L 2194 1759 
z
M 3341 1997 
L 3341 0 
L 2766 0 
L 2766 531 
Q 2569 213 2275 61 
Q 1981 -91 1556 -91 
Q 1019 -91 701 211 
Q 384 513 384 1019 
Q 384 1609 779 1909 
Q 1175 2209 1959 2209 
L 2766 2209 
L 2766 2266 
Q 2766 2663 2505 2880 
Q 2244 3097 1772 3097 
Q 1472 3097 1187 3025 
Q 903 2953 641 2809 
L 641 3341 
Q 956 3463 1253 3523 
Q 1550 3584 1831 3584 
Q 2591 3584 2966 3190 
Q 3341 2797 3341 1997 
z
" id="DejaVuSans-61" transform="scale(0.015625)"/>
        <path d="M 2906 1791 
Q 2906 2416 2648 2759 
Q 2391 3103 1925 3103 
Q 1463 3103 1205 2759 
Q 947 2416 947 1791 
Q 947 1169 1205 825 
Q 1463 481 1925 481 
Q 2391 481 2648 825 
Q 2906 1169 2906 1791 
z
M 3481 434 
Q 3481 -459 3084 -895 
Q 2688 -1331 1869 -1331 
Q 1566 -1331 1297 -1286 
Q 1028 -1241 775 -1147 
L 775 -588 
Q 1028 -725 1275 -790 
Q 1522 -856 1778 -856 
Q 2344 -856 2625 -561 
Q 2906 -266 2906 331 
L 2906 616 
Q 2728 306 2450 153 
Q 2172 0 1784 0 
Q 1141 0 747 490 
Q 353 981 353 1791 
Q 353 2603 747 3093 
Q 1141 3584 1784 3584 
Q 2172 3584 2450 3431 
Q 2728 3278 2906 2969 
L 2906 3500 
L 3481 3500 
L 3481 434 
z
" id="DejaVuSans-67" transform="scale(0.015625)"/>
        <path d="M 3597 1894 
L 3597 1613 
L 953 1613 
Q 991 1019 1311 708 
Q 1631 397 2203 397 
Q 2534 397 2845 478 
Q 3156 559 3463 722 
L 3463 178 
Q 3153 47 2828 -22 
Q 2503 -91 2169 -91 
Q 1331 -91 842 396 
Q 353 884 353 1716 
Q 353 2575 817 3079 
Q 1281 3584 2069 3584 
Q 2775 3584 3186 3129 
Q 3597 2675 3597 1894 
z
M 3022 2063 
Q 3016 2534 2758 2815 
Q 2500 3097 2075 3097 
Q 1594 3097 1305 2825 
Q 1016 2553 972 2059 
L 3022 2063 
z
" id="DejaVuSans-65" transform="scale(0.015625)"/>
        <path d="M 3513 2113 
L 3513 0 
L 2938 0 
L 2938 2094 
Q 2938 2591 2744 2837 
Q 2550 3084 2163 3084 
Q 1697 3084 1428 2787 
Q 1159 2491 1159 1978 
L 1159 0 
L 581 0 
L 581 3500 
L 1159 3500 
L 1159 2956 
Q 1366 3272 1645 3428 
Q 1925 3584 2291 3584 
Q 2894 3584 3203 3211 
Q 3513 2838 3513 2113 
z
" id="DejaVuSans-6e" transform="scale(0.015625)"/>
        <path d="M 1172 4494 
L 1172 3500 
L 2356 3500 
L 2356 3053 
L 1172 3053 
L 1172 1153 
Q 1172 725 1289 603 
Q 1406 481 1766 481 
L 2356 481 
L 2356 0 
L 1766 0 
Q 1100 0 847 248 
Q 594 497 594 1153 
L 594 3053 
L 172 3053 
L 172 3500 
L 594 3500 
L 594 4494 
L 1172 4494 
z
" id="DejaVuSans-74" transform="scale(0.015625)"/>
       </defs>
       <use xlink:href="#DejaVuSans-61"/>
       <use x="61.279297" xlink:href="#DejaVuSans-67"/>
       <use x="124.755859" xlink:href="#DejaVuSans-65"/>
       <use x="186.279297" xlink:href="#DejaVuSans-6e"/>
       <use x="249.658203" xlink:href="#DejaVuSans-74"/>
      </g>
     </g>
    </g>
    <g id="xtick_2">
     <g id="line2d_2">
      <g>
       <use style="stroke:#000000;stroke-width:0.8;" x="288" xlink:href="#mfad247c7c3" y="961.2"/>
      </g>
     </g>
     <g id="text_2">
      <!-- environment -->
      <g transform="translate(251.811773 1043.006815)rotate(-40)scale(0.16 -0.16)">
       <defs>
        <path d="M 191 3500 
L 800 3500 
L 1894 563 
L 2988 3500 
L 3597 3500 
L 2284 0 
L 1503 0 
L 191 3500 
z
" id="DejaVuSans-76" transform="scale(0.015625)"/>
        <path d="M 603 3500 
L 1178 3500 
L 1178 0 
L 603 0 
L 603 3500 
z
M 603 4863 
L 1178 4863 
L 1178 4134 
L 603 4134 
L 603 4863 
z
" id="DejaVuSans-69" transform="scale(0.015625)"/>
        <path d="M 2631 2963 
Q 2534 3019 2420 3045 
Q 2306 3072 2169 3072 
Q 1681 3072 1420 2755 
Q 1159 2438 1159 1844 
L 1159 0 
L 581 0 
L 581 3500 
L 1159 3500 
L 1159 2956 
Q 1341 3275 1631 3429 
Q 1922 3584 2338 3584 
Q 2397 3584 2469 3576 
Q 2541 3569 2628 3553 
L 2631 2963 
z
" id="DejaVuSans-72" transform="scale(0.015625)"/>
        <path d="M 1959 3097 
Q 1497 3097 1228 2736 
Q 959 2375 959 1747 
Q 959 1119 1226 758 
Q 1494 397 1959 397 
Q 2419 397 2687 759 
Q 2956 1122 2956 1747 
Q 2956 2369 2687 2733 
Q 2419 3097 1959 3097 
z
M 1959 3584 
Q 2709 3584 3137 3096 
Q 3566 2609 3566 1747 
Q 3566 888 3137 398 
Q 2709 -91 1959 -91 
Q 1206 -91 779 398 
Q 353 888 353 1747 
Q 353 2609 779 3096 
Q 1206 3584 1959 3584 
z
" id="DejaVuSans-6f" transform="scale(0.015625)"/>
        <path d="M 3328 2828 
Q 3544 3216 3844 3400 
Q 4144 3584 4550 3584 
Q 5097 3584 5394 3201 
Q 5691 2819 5691 2113 
L 5691 0 
L 5113 0 
L 5113 2094 
Q 5113 2597 4934 2840 
Q 4756 3084 4391 3084 
Q 3944 3084 3684 2787 
Q 3425 2491 3425 1978 
L 3425 0 
L 2847 0 
L 2847 2094 
Q 2847 2600 2669 2842 
Q 2491 3084 2119 3084 
Q 1678 3084 1418 2786 
Q 1159 2488 1159 1978 
L 1159 0 
L 581 0 
L 581 3500 
L 1159 3500 
L 1159 2956 
Q 1356 3278 1631 3431 
Q 1906 3584 2284 3584 
Q 2666 3584 2933 3390 
Q 3200 3197 3328 2828 
z
" id="DejaVuSans-6d" transform="scale(0.015625)"/>
       </defs>
       <use xlink:href="#DejaVuSans-65"/>
       <use x="61.523438" xlink:href="#DejaVuSans-6e"/>
       <use x="124.902344" xlink:href="#DejaVuSans-76"/>
       <use x="184.082031" xlink:href="#DejaVuSans-69"/>
       <use x="211.865234" xlink:href="#DejaVuSans-72"/>
       <use x="250.728516" xlink:href="#DejaVuSans-6f"/>
       <use x="311.910156" xlink:href="#DejaVuSans-6e"/>
       <use x="375.289062" xlink:href="#DejaVuSans-6d"/>
       <use x="472.701172" xlink:href="#DejaVuSans-65"/>
       <use x="534.224609" xlink:href="#DejaVuSans-6e"/>
       <use x="597.603516" xlink:href="#DejaVuSans-74"/>
      </g>
     </g>
    </g>
    <g id="xtick_3">
     <g id="line2d_3">
      <g>
       <use style="stroke:#000000;stroke-width:0.8;" x="328.909091" xlink:href="#mfad247c7c3" y="961.2"/>
      </g>
     </g>
     <g id="text_3">
      <!-- reward -->
      <g transform="translate(310.524694 1013.12844)rotate(-40)scale(0.16 -0.16)">
       <defs>
        <path d="M 269 3500 
L 844 3500 
L 1563 769 
L 2278 3500 
L 2956 3500 
L 3675 769 
L 4391 3500 
L 4966 3500 
L 4050 0 
L 3372 0 
L 2619 2869 
L 1863 0 
L 1184 0 
L 269 3500 
z
" id="DejaVuSans-77" transform="scale(0.015625)"/>
        <path d="M 2906 2969 
L 2906 4863 
L 3481 4863 
L 3481 0 
L 2906 0 
L 2906 525 
Q 2725 213 2448 61 
Q 2172 -91 1784 -91 
Q 1150 -91 751 415 
Q 353 922 353 1747 
Q 353 2572 751 3078 
Q 1150 3584 1784 3584 
Q 2172 3584 2448 3432 
Q 2725 3281 2906 2969 
z
M 947 1747 
Q 947 1113 1208 752 
Q 1469 391 1925 391 
Q 2381 391 2643 752 
Q 2906 1113 2906 1747 
Q 2906 2381 2643 2742 
Q 2381 3103 1925 3103 
Q 1469 3103 1208 2742 
Q 947 2381 947 1747 
z
" id="DejaVuSans-64" transform="scale(0.015625)"/>
       </defs>
       <use xlink:href="#DejaVuSans-72"/>
       <use x="38.863281" xlink:href="#DejaVuSans-65"/>
       <use x="100.386719" xlink:href="#DejaVuSans-77"/>
       <use x="182.173828" xlink:href="#DejaVuSans-61"/>
       <use x="243.453125" xlink:href="#DejaVuSans-72"/>
       <use x="282.816406" xlink:href="#DejaVuSans-64"/>
      </g>
     </g>
    </g>
    <g id="xtick_4">
     <g id="line2d_4">
      <g>
       <use style="stroke:#000000;stroke-width:0.8;" x="369.818182" xlink:href="#mfad247c7c3" y="961.2"/>
      </g>
     </g>
     <g id="text_4">
      <!-- action -->
      <g transform="translate(353.792245 1009.170475)rotate(-40)scale(0.16 -0.16)">
       <defs>
        <path d="M 3122 3366 
L 3122 2828 
Q 2878 2963 2633 3030 
Q 2388 3097 2138 3097 
Q 1578 3097 1268 2742 
Q 959 2388 959 1747 
Q 959 1106 1268 751 
Q 1578 397 2138 397 
Q 2388 397 2633 464 
Q 2878 531 3122 666 
L 3122 134 
Q 2881 22 2623 -34 
Q 2366 -91 2075 -91 
Q 1284 -91 818 406 
Q 353 903 353 1747 
Q 353 2603 823 3093 
Q 1294 3584 2113 3584 
Q 2378 3584 2631 3529 
Q 2884 3475 3122 3366 
z
" id="DejaVuSans-63" transform="scale(0.015625)"/>
       </defs>
       <use xlink:href="#DejaVuSans-61"/>
       <use x="61.279297" xlink:href="#DejaVuSans-63"/>
       <use x="116.259766" xlink:href="#DejaVuSans-74"/>
       <use x="155.46875" xlink:href="#DejaVuSans-69"/>
       <use x="183.251953" xlink:href="#DejaVuSans-6f"/>
       <use x="244.433594" xlink:href="#DejaVuSans-6e"/>
      </g>
     </g>
    </g>
    <g id="xtick_5">
     <g id="line2d_5">
      <g>
       <use style="stroke:#000000;stroke-width:0.8;" x="410.727273" xlink:href="#mfad247c7c3" y="961.2"/>
      </g>
     </g>
     <g id="text_5">
      <!-- game -->
      <g transform="translate(396.178844 1006.690922)rotate(-40)scale(0.16 -0.16)">
       <use xlink:href="#DejaVuSans-67"/>
       <use x="63.476562" xlink:href="#DejaVuSans-61"/>
       <use x="124.755859" xlink:href="#DejaVuSans-6d"/>
       <use x="222.167969" xlink:href="#DejaVuSans-65"/>
      </g>
     </g>
    </g>
    <g id="xtick_6">
     <g id="line2d_6">
      <g>
       <use style="stroke:#000000;stroke-width:0.8;" x="451.636364" xlink:href="#mfad247c7c3" y="961.2"/>
      </g>
     </g>
     <g id="text_6">
      <!-- reinforcement -->
      <g transform="translate(411.279897 1050.001951)rotate(-40)scale(0.16 -0.16)">
       <defs>
        <path d="M 2375 4863 
L 2375 4384 
L 1825 4384 
Q 1516 4384 1395 4259 
Q 1275 4134 1275 3809 
L 1275 3500 
L 2222 3500 
L 2222 3053 
L 1275 3053 
L 1275 0 
L 697 0 
L 697 3053 
L 147 3053 
L 147 3500 
L 697 3500 
L 697 3744 
Q 697 4328 969 4595 
Q 1241 4863 1831 4863 
L 2375 4863 
z
" id="DejaVuSans-66" transform="scale(0.015625)"/>
       </defs>
       <use xlink:href="#DejaVuSans-72"/>
       <use x="38.863281" xlink:href="#DejaVuSans-65"/>
       <use x="100.386719" xlink:href="#DejaVuSans-69"/>
       <use x="128.169922" xlink:href="#DejaVuSans-6e"/>
       <use x="191.548828" xlink:href="#DejaVuSans-66"/>
       <use x="226.753906" xlink:href="#DejaVuSans-6f"/>
       <use x="287.935547" xlink:href="#DejaVuSans-72"/>
       <use x="326.798828" xlink:href="#DejaVuSans-63"/>
       <use x="381.779297" xlink:href="#DejaVuSans-65"/>
       <use x="443.302734" xlink:href="#DejaVuSans-6d"/>
       <use x="540.714844" xlink:href="#DejaVuSans-65"/>
       <use x="602.238281" xlink:href="#DejaVuSans-6e"/>
       <use x="665.617188" xlink:href="#DejaVuSans-74"/>
      </g>
     </g>
    </g>
    <g id="xtick_7">
     <g id="line2d_7">
      <g>
       <use style="stroke:#000000;stroke-width:0.8;" x="492.545455" xlink:href="#mfad247c7c3" y="961.2"/>
      </g>
     </g>
     <g id="text_7">
      <!-- policy -->
      <g transform="translate(477.3411 1007.791696)rotate(-40)scale(0.16 -0.16)">
       <defs>
        <path d="M 1159 525 
L 1159 -1331 
L 581 -1331 
L 581 3500 
L 1159 3500 
L 1159 2969 
Q 1341 3281 1617 3432 
Q 1894 3584 2278 3584 
Q 2916 3584 3314 3078 
Q 3713 2572 3713 1747 
Q 3713 922 3314 415 
Q 2916 -91 2278 -91 
Q 1894 -91 1617 61 
Q 1341 213 1159 525 
z
M 3116 1747 
Q 3116 2381 2855 2742 
Q 2594 3103 2138 3103 
Q 1681 3103 1420 2742 
Q 1159 2381 1159 1747 
Q 1159 1113 1420 752 
Q 1681 391 2138 391 
Q 2594 391 2855 752 
Q 3116 1113 3116 1747 
z
" id="DejaVuSans-70" transform="scale(0.015625)"/>
        <path d="M 603 4863 
L 1178 4863 
L 1178 0 
L 603 0 
L 603 4863 
z
" id="DejaVuSans-6c" transform="scale(0.015625)"/>
        <path d="M 2059 -325 
Q 1816 -950 1584 -1140 
Q 1353 -1331 966 -1331 
L 506 -1331 
L 506 -850 
L 844 -850 
Q 1081 -850 1212 -737 
Q 1344 -625 1503 -206 
L 1606 56 
L 191 3500 
L 800 3500 
L 1894 763 
L 2988 3500 
L 3597 3500 
L 2059 -325 
z
" id="DejaVuSans-79" transform="scale(0.015625)"/>
       </defs>
       <use xlink:href="#DejaVuSans-70"/>
       <use x="63.476562" xlink:href="#DejaVuSans-6f"/>
       <use x="124.658203" xlink:href="#DejaVuSans-6c"/>
       <use x="152.441406" xlink:href="#DejaVuSans-69"/>
       <use x="180.224609" xlink:href="#DejaVuSans-63"/>
       <use x="235.205078" xlink:href="#DejaVuSans-79"/>
      </g>
     </g>
    </g>
    <g id="xtick_8">
     <g id="line2d_8">
      <g>
       <use style="stroke:#000000;stroke-width:0.8;" x="533.454545" xlink:href="#mfad247c7c3" y="961.2"/>
      </g>
     </g>
     <g id="text_8">
      <!-- deep -->
      <g transform="translate(520.969649 1003.227904)rotate(-40)scale(0.16 -0.16)">
       <use xlink:href="#DejaVuSans-64"/>
       <use x="63.476562" xlink:href="#DejaVuSans-65"/>
       <use x="125" xlink:href="#DejaVuSans-65"/>
       <use x="186.523438" xlink:href="#DejaVuSans-70"/>
      </g>
     </g>
    </g>
    <g id="xtick_9">
     <g id="line2d_9">
      <g>
       <use style="stroke:#000000;stroke-width:0.8;" x="574.363636" xlink:href="#mfad247c7c3" y="961.2"/>
      </g>
     </g>
     <g id="text_9">
      <!-- algorithm -->
      <g transform="translate(547.625525 1027.147638)rotate(-40)scale(0.16 -0.16)">
       <defs>
        <path d="M 3513 2113 
L 3513 0 
L 2938 0 
L 2938 2094 
Q 2938 2591 2744 2837 
Q 2550 3084 2163 3084 
Q 1697 3084 1428 2787 
Q 1159 2491 1159 1978 
L 1159 0 
L 581 0 
L 581 4863 
L 1159 4863 
L 1159 2956 
Q 1366 3272 1645 3428 
Q 1925 3584 2291 3584 
Q 2894 3584 3203 3211 
Q 3513 2838 3513 2113 
z
" id="DejaVuSans-68" transform="scale(0.015625)"/>
       </defs>
       <use xlink:href="#DejaVuSans-61"/>
       <use x="61.279297" xlink:href="#DejaVuSans-6c"/>
       <use x="89.0625" xlink:href="#DejaVuSans-67"/>
       <use x="152.539062" xlink:href="#DejaVuSans-6f"/>
       <use x="213.720703" xlink:href="#DejaVuSans-72"/>
       <use x="254.833984" xlink:href="#DejaVuSans-69"/>
       <use x="282.617188" xlink:href="#DejaVuSans-74"/>
       <use x="321.826172" xlink:href="#DejaVuSans-68"/>
       <use x="385.205078" xlink:href="#DejaVuSans-6d"/>
      </g>
     </g>
    </g>
    <g id="xtick_10">
     <g id="line2d_10">
      <g>
       <use style="stroke:#000000;stroke-width:0.8;" x="615.272727" xlink:href="#mfad247c7c3" y="961.2"/>
      </g>
     </g>
     <g id="text_10">
      <!-- follow -->
      <g transform="translate(600.036773 1007.844726)rotate(-40)scale(0.16 -0.16)">
       <use xlink:href="#DejaVuSans-66"/>
       <use x="35.205078" xlink:href="#DejaVuSans-6f"/>
       <use x="96.386719" xlink:href="#DejaVuSans-6c"/>
       <use x="124.169922" xlink:href="#DejaVuSans-6c"/>
       <use x="151.953125" xlink:href="#DejaVuSans-6f"/>
       <use x="213.134766" xlink:href="#DejaVuSans-77"/>
      </g>
     </g>
    </g>
    <g id="xtick_11">
     <g id="line2d_11">
      <g>
       <use style="stroke:#000000;stroke-width:0.8;" x="656.181818" xlink:href="#mfad247c7c3" y="961.2"/>
      </g>
     </g>
     <g id="text_11">
      <!-- landmark -->
      <g transform="translate(629.994302 1026.22363)rotate(-40)scale(0.16 -0.16)">
       <defs>
        <path d="M 581 4863 
L 1159 4863 
L 1159 1991 
L 2875 3500 
L 3609 3500 
L 1753 1863 
L 3688 0 
L 2938 0 
L 1159 1709 
L 1159 0 
L 581 0 
L 581 4863 
z
" id="DejaVuSans-6b" transform="scale(0.015625)"/>
       </defs>
       <use xlink:href="#DejaVuSans-6c"/>
       <use x="27.783203" xlink:href="#DejaVuSans-61"/>
       <use x="89.0625" xlink:href="#DejaVuSans-6e"/>
       <use x="152.441406" xlink:href="#DejaVuSans-64"/>
       <use x="215.917969" xlink:href="#DejaVuSans-6d"/>
       <use x="313.330078" xlink:href="#DejaVuSans-61"/>
       <use x="374.609375" xlink:href="#DejaVuSans-72"/>
       <use x="415.722656" xlink:href="#DejaVuSans-6b"/>
      </g>
     </g>
    </g>
    <g id="xtick_12">
     <g id="line2d_12">
      <g>
       <use style="stroke:#000000;stroke-width:0.8;" x="697.090909" xlink:href="#mfad247c7c3" y="961.2"/>
      </g>
     </g>
     <g id="text_12">
      <!-- base -->
      <g transform="translate(685.319391 1002.030712)rotate(-40)scale(0.16 -0.16)">
       <defs>
        <path d="M 3116 1747 
Q 3116 2381 2855 2742 
Q 2594 3103 2138 3103 
Q 1681 3103 1420 2742 
Q 1159 2381 1159 1747 
Q 1159 1113 1420 752 
Q 1681 391 2138 391 
Q 2594 391 2855 752 
Q 3116 1113 3116 1747 
z
M 1159 2969 
Q 1341 3281 1617 3432 
Q 1894 3584 2278 3584 
Q 2916 3584 3314 3078 
Q 3713 2572 3713 1747 
Q 3713 922 3314 415 
Q 2916 -91 2278 -91 
Q 1894 -91 1617 61 
Q 1341 213 1159 525 
L 1159 0 
L 581 0 
L 581 4863 
L 1159 4863 
L 1159 2969 
z
" id="DejaVuSans-62" transform="scale(0.015625)"/>
        <path d="M 2834 3397 
L 2834 2853 
Q 2591 2978 2328 3040 
Q 2066 3103 1784 3103 
Q 1356 3103 1142 2972 
Q 928 2841 928 2578 
Q 928 2378 1081 2264 
Q 1234 2150 1697 2047 
L 1894 2003 
Q 2506 1872 2764 1633 
Q 3022 1394 3022 966 
Q 3022 478 2636 193 
Q 2250 -91 1575 -91 
Q 1294 -91 989 -36 
Q 684 19 347 128 
L 347 722 
Q 666 556 975 473 
Q 1284 391 1588 391 
Q 1994 391 2212 530 
Q 2431 669 2431 922 
Q 2431 1156 2273 1281 
Q 2116 1406 1581 1522 
L 1381 1569 
Q 847 1681 609 1914 
Q 372 2147 372 2553 
Q 372 3047 722 3315 
Q 1072 3584 1716 3584 
Q 2034 3584 2315 3537 
Q 2597 3491 2834 3397 
z
" id="DejaVuSans-73" transform="scale(0.015625)"/>
       </defs>
       <use xlink:href="#DejaVuSans-62"/>
       <use x="63.476562" xlink:href="#DejaVuSans-61"/>
       <use x="124.755859" xlink:href="#DejaVuSans-73"/>
       <use x="176.855469" xlink:href="#DejaVuSans-65"/>
      </g>
     </g>
    </g>
    <g id="xtick_13">
     <g id="line2d_13">
      <g>
       <use style="stroke:#000000;stroke-width:0.8;" x="738" xlink:href="#mfad247c7c3" y="961.2"/>
      </g>
     </g>
     <g id="text_13">
      <!-- episode -->
      <g transform="translate(716.870292 1017.73562)rotate(-40)scale(0.16 -0.16)">
       <use xlink:href="#DejaVuSans-65"/>
       <use x="61.523438" xlink:href="#DejaVuSans-70"/>
       <use x="125" xlink:href="#DejaVuSans-69"/>
       <use x="152.783203" xlink:href="#DejaVuSans-73"/>
       <use x="204.882812" xlink:href="#DejaVuSans-6f"/>
       <use x="266.064453" xlink:href="#DejaVuSans-64"/>
       <use x="329.541016" xlink:href="#DejaVuSans-65"/>
      </g>
     </g>
    </g>
    <g id="xtick_14">
     <g id="line2d_14">
      <g>
       <use style="stroke:#000000;stroke-width:0.8;" x="778.909091" xlink:href="#mfad247c7c3" y="961.2"/>
      </g>
     </g>
     <g id="text_14">
      <!-- see -->
      <g transform="translate(771.0128 995.527308)rotate(-40)scale(0.16 -0.16)">
       <use xlink:href="#DejaVuSans-73"/>
       <use x="52.099609" xlink:href="#DejaVuSans-65"/>
       <use x="113.623047" xlink:href="#DejaVuSans-65"/>
      </g>
     </g>
    </g>
    <g id="xtick_15">
     <g id="line2d_15">
      <g>
       <use style="stroke:#000000;stroke-width:0.8;" x="819.818182" xlink:href="#mfad247c7c3" y="961.2"/>
      </g>
     </g>
     <g id="text_15">
      <!-- state -->
      <g transform="translate(807.132198 1003.565367)rotate(-40)scale(0.16 -0.16)">
       <use xlink:href="#DejaVuSans-73"/>
       <use x="52.099609" xlink:href="#DejaVuSans-74"/>
       <use x="91.308594" xlink:href="#DejaVuSans-61"/>
       <use x="152.587891" xlink:href="#DejaVuSans-74"/>
       <use x="191.796875" xlink:href="#DejaVuSans-65"/>
      </g>
     </g>
    </g>
    <g id="xtick_16">
     <g id="line2d_16">
      <g>
       <use style="stroke:#000000;stroke-width:0.8;" x="860.727273" xlink:href="#mfad247c7c3" y="961.2"/>
      </g>
     </g>
     <g id="text_16">
      <!-- test -->
      <g transform="translate(851.796822 997.262835)rotate(-40)scale(0.16 -0.16)">
       <use xlink:href="#DejaVuSans-74"/>
       <use x="39.208984" xlink:href="#DejaVuSans-65"/>
       <use x="100.732422" xlink:href="#DejaVuSans-73"/>
       <use x="152.832031" xlink:href="#DejaVuSans-74"/>
      </g>
     </g>
    </g>
    <g id="xtick_17">
     <g id="line2d_17">
      <g>
       <use style="stroke:#000000;stroke-width:0.8;" x="901.636364" xlink:href="#mfad247c7c3" y="961.2"/>
      </g>
     </g>
     <g id="text_17">
      <!-- project -->
      <g transform="translate(883.206962 1013.203967)rotate(-40)scale(0.16 -0.16)">
       <defs>
        <path d="M 603 3500 
L 1178 3500 
L 1178 -63 
Q 1178 -731 923 -1031 
Q 669 -1331 103 -1331 
L -116 -1331 
L -116 -844 
L 38 -844 
Q 366 -844 484 -692 
Q 603 -541 603 -63 
L 603 3500 
z
M 603 4863 
L 1178 4863 
L 1178 4134 
L 603 4134 
L 603 4863 
z
" id="DejaVuSans-6a" transform="scale(0.015625)"/>
       </defs>
       <use xlink:href="#DejaVuSans-70"/>
       <use x="63.476562" xlink:href="#DejaVuSans-72"/>
       <use x="102.339844" xlink:href="#DejaVuSans-6f"/>
       <use x="163.521484" xlink:href="#DejaVuSans-6a"/>
       <use x="191.304688" xlink:href="#DejaVuSans-65"/>
       <use x="252.828125" xlink:href="#DejaVuSans-63"/>
       <use x="307.808594" xlink:href="#DejaVuSans-74"/>
      </g>
     </g>
    </g>
    <g id="xtick_18">
     <g id="line2d_18">
      <g>
       <use style="stroke:#000000;stroke-width:0.8;" x="942.545455" xlink:href="#mfad247c7c3" y="961.2"/>
      </g>
     </g>
     <g id="text_18">
      <!-- actor -->
      <g transform="translate(929.586568 1004.023353)rotate(-40)scale(0.16 -0.16)">
       <use xlink:href="#DejaVuSans-61"/>
       <use x="61.279297" xlink:href="#DejaVuSans-63"/>
       <use x="116.259766" xlink:href="#DejaVuSans-74"/>
       <use x="155.46875" xlink:href="#DejaVuSans-6f"/>
       <use x="216.650391" xlink:href="#DejaVuSans-72"/>
      </g>
     </g>
    </g>
    <g id="xtick_19">
     <g id="line2d_19">
      <g>
       <use style="stroke:#000000;stroke-width:0.8;" x="983.454545" xlink:href="#mfad247c7c3" y="961.2"/>
      </g>
     </g>
     <g id="text_19">
      <!-- weight -->
      <g transform="translate(965.630319 1012.188363)rotate(-40)scale(0.16 -0.16)">
       <use xlink:href="#DejaVuSans-77"/>
       <use x="81.787109" xlink:href="#DejaVuSans-65"/>
       <use x="143.310547" xlink:href="#DejaVuSans-69"/>
       <use x="171.09375" xlink:href="#DejaVuSans-67"/>
       <use x="234.570312" xlink:href="#DejaVuSans-68"/>
       <use x="297.949219" xlink:href="#DejaVuSans-74"/>
      </g>
     </g>
    </g>
    <g id="xtick_20">
     <g id="line2d_20">
      <g>
       <use style="stroke:#000000;stroke-width:0.8;" x="1024.363636" xlink:href="#mfad247c7c3" y="961.2"/>
      </g>
     </g>
     <g id="text_20">
      <!-- time -->
      <g transform="translate(1013.356248 1000.74835)rotate(-40)scale(0.16 -0.16)">
       <use xlink:href="#DejaVuSans-74"/>
       <use x="39.208984" xlink:href="#DejaVuSans-69"/>
       <use x="66.992188" xlink:href="#DejaVuSans-6d"/>
       <use x="164.404297" xlink:href="#DejaVuSans-65"/>
      </g>
     </g>
    </g>
    <g id="xtick_21">
     <g id="line2d_21">
      <g>
       <use style="stroke:#000000;stroke-width:0.8;" x="1065.272727" xlink:href="#mfad247c7c3" y="961.2"/>
      </g>
     </g>
     <g id="text_21">
      <!-- value -->
      <g transform="translate(1051.370648 1005.606218)rotate(-40)scale(0.16 -0.16)">
       <defs>
        <path d="M 544 1381 
L 544 3500 
L 1119 3500 
L 1119 1403 
Q 1119 906 1312 657 
Q 1506 409 1894 409 
Q 2359 409 2629 706 
Q 2900 1003 2900 1516 
L 2900 3500 
L 3475 3500 
L 3475 0 
L 2900 0 
L 2900 538 
Q 2691 219 2414 64 
Q 2138 -91 1772 -91 
Q 1169 -91 856 284 
Q 544 659 544 1381 
z
M 1991 3584 
L 1991 3584 
z
" id="DejaVuSans-75" transform="scale(0.015625)"/>
       </defs>
       <use xlink:href="#DejaVuSans-76"/>
       <use x="59.179688" xlink:href="#DejaVuSans-61"/>
       <use x="120.458984" xlink:href="#DejaVuSans-6c"/>
       <use x="148.242188" xlink:href="#DejaVuSans-75"/>
       <use x="211.621094" xlink:href="#DejaVuSans-65"/>
      </g>
     </g>
    </g>
    <g id="xtick_22">
     <g id="line2d_22">
      <g>
       <use style="stroke:#000000;stroke-width:0.8;" x="1106.181818" xlink:href="#mfad247c7c3" y="961.2"/>
      </g>
     </g>
     <g id="text_22">
      <!-- contain -->
      <g transform="translate(1086.272036 1015.688341)rotate(-40)scale(0.16 -0.16)">
       <use xlink:href="#DejaVuSans-63"/>
       <use x="54.980469" xlink:href="#DejaVuSans-6f"/>
       <use x="116.162109" xlink:href="#DejaVuSans-6e"/>
       <use x="179.541016" xlink:href="#DejaVuSans-74"/>
       <use x="218.75" xlink:href="#DejaVuSans-61"/>
       <use x="280.029297" xlink:href="#DejaVuSans-69"/>
       <use x="307.8125" xlink:href="#DejaVuSans-6e"/>
      </g>
     </g>
    </g>
    <g id="xtick_23">
     <g id="line2d_23">
      <g>
       <use style="stroke:#000000;stroke-width:0.8;" x="1147.090909" xlink:href="#mfad247c7c3" y="961.2"/>
      </g>
     </g>
     <g id="text_23">
      <!-- play -->
      <g transform="translate(1136.952981 999.289223)rotate(-40)scale(0.16 -0.16)">
       <use xlink:href="#DejaVuSans-70"/>
       <use x="63.476562" xlink:href="#DejaVuSans-6c"/>
       <use x="91.259766" xlink:href="#DejaVuSans-61"/>
       <use x="152.539062" xlink:href="#DejaVuSans-79"/>
      </g>
     </g>
    </g>
    <g id="xtick_24">
     <g id="line2d_24">
      <g>
       <use style="stroke:#000000;stroke-width:0.8;" x="1188" xlink:href="#mfad247c7c3" y="961.2"/>
      </g>
     </g>
     <g id="text_24">
      <!-- function -->
      <g transform="translate(1165.804532 1019.524177)rotate(-40)scale(0.16 -0.16)">
       <use xlink:href="#DejaVuSans-66"/>
       <use x="35.205078" xlink:href="#DejaVuSans-75"/>
       <use x="98.583984" xlink:href="#DejaVuSans-6e"/>
       <use x="161.962891" xlink:href="#DejaVuSans-63"/>
       <use x="216.943359" xlink:href="#DejaVuSans-74"/>
       <use x="256.152344" xlink:href="#DejaVuSans-69"/>
       <use x="283.935547" xlink:href="#DejaVuSans-6f"/>
       <use x="345.117188" xlink:href="#DejaVuSans-6e"/>
      </g>
     </g>
    </g>
    <g id="xtick_25">
     <g id="line2d_25">
      <g>
       <use style="stroke:#000000;stroke-width:0.8;" x="1228.909091" xlink:href="#mfad247c7c3" y="961.2"/>
      </g>
     </g>
     <g id="text_25">
      <!-- provide -->
      <g transform="translate(1208.734066 1016.133472)rotate(-40)scale(0.16 -0.16)">
       <use xlink:href="#DejaVuSans-70"/>
       <use x="63.476562" xlink:href="#DejaVuSans-72"/>
       <use x="102.339844" xlink:href="#DejaVuSans-6f"/>
       <use x="163.521484" xlink:href="#DejaVuSans-76"/>
       <use x="222.701172" xlink:href="#DejaVuSans-69"/>
       <use x="250.484375" xlink:href="#DejaVuSans-64"/>
       <use x="313.960938" xlink:href="#DejaVuSans-65"/>
      </g>
     </g>
    </g>
    <g id="text_26">
     <!-- Words -->
     <g transform="translate(709.5375 1068.708464)scale(0.16 -0.16)">
      <defs>
       <path d="M 191 4666 
L 1344 4666 
L 2150 1275 
L 2950 4666 
L 4109 4666 
L 4909 1275 
L 5716 4666 
L 6859 4666 
L 5759 0 
L 4372 0 
L 3525 3547 
L 2688 0 
L 1300 0 
L 191 4666 
z
" id="DejaVuSans-Bold-57" transform="scale(0.015625)"/>
       <path d="M 2203 2784 
Q 1831 2784 1636 2517 
Q 1441 2250 1441 1747 
Q 1441 1244 1636 976 
Q 1831 709 2203 709 
Q 2569 709 2762 976 
Q 2956 1244 2956 1747 
Q 2956 2250 2762 2517 
Q 2569 2784 2203 2784 
z
M 2203 3584 
Q 3106 3584 3614 3096 
Q 4122 2609 4122 1747 
Q 4122 884 3614 396 
Q 3106 -91 2203 -91 
Q 1297 -91 786 396 
Q 275 884 275 1747 
Q 275 2609 786 3096 
Q 1297 3584 2203 3584 
z
" id="DejaVuSans-Bold-6f" transform="scale(0.015625)"/>
       <path d="M 3138 2547 
Q 2991 2616 2845 2648 
Q 2700 2681 2553 2681 
Q 2122 2681 1889 2404 
Q 1656 2128 1656 1613 
L 1656 0 
L 538 0 
L 538 3500 
L 1656 3500 
L 1656 2925 
Q 1872 3269 2151 3426 
Q 2431 3584 2822 3584 
Q 2878 3584 2943 3579 
Q 3009 3575 3134 3559 
L 3138 2547 
z
" id="DejaVuSans-Bold-72" transform="scale(0.015625)"/>
       <path d="M 2919 2988 
L 2919 4863 
L 4044 4863 
L 4044 0 
L 2919 0 
L 2919 506 
Q 2688 197 2409 53 
Q 2131 -91 1766 -91 
Q 1119 -91 703 423 
Q 288 938 288 1747 
Q 288 2556 703 3070 
Q 1119 3584 1766 3584 
Q 2128 3584 2408 3439 
Q 2688 3294 2919 2988 
z
M 2181 722 
Q 2541 722 2730 984 
Q 2919 1247 2919 1747 
Q 2919 2247 2730 2509 
Q 2541 2772 2181 2772 
Q 1825 2772 1636 2509 
Q 1447 2247 1447 1747 
Q 1447 1247 1636 984 
Q 1825 722 2181 722 
z
" id="DejaVuSans-Bold-64" transform="scale(0.015625)"/>
       <path d="M 3272 3391 
L 3272 2541 
Q 2913 2691 2578 2766 
Q 2244 2841 1947 2841 
Q 1628 2841 1473 2761 
Q 1319 2681 1319 2516 
Q 1319 2381 1436 2309 
Q 1553 2238 1856 2203 
L 2053 2175 
Q 2913 2066 3209 1816 
Q 3506 1566 3506 1031 
Q 3506 472 3093 190 
Q 2681 -91 1863 -91 
Q 1516 -91 1145 -36 
Q 775 19 384 128 
L 384 978 
Q 719 816 1070 734 
Q 1422 653 1784 653 
Q 2113 653 2278 743 
Q 2444 834 2444 1013 
Q 2444 1163 2330 1236 
Q 2216 1309 1875 1350 
L 1678 1375 
Q 931 1469 631 1722 
Q 331 1975 331 2491 
Q 331 3047 712 3315 
Q 1094 3584 1881 3584 
Q 2191 3584 2531 3537 
Q 2872 3491 3272 3391 
z
" id="DejaVuSans-Bold-73" transform="scale(0.015625)"/>
      </defs>
      <use xlink:href="#DejaVuSans-Bold-57"/>
      <use x="106.677734" xlink:href="#DejaVuSans-Bold-6f"/>
      <use x="175.378906" xlink:href="#DejaVuSans-Bold-72"/>
      <use x="224.695312" xlink:href="#DejaVuSans-Bold-64"/>
      <use x="296.277344" xlink:href="#DejaVuSans-Bold-73"/>
     </g>
    </g>
   </g>
   <g id="matplotlib.axis_2">
    <g id="ytick_1">
     <g id="line2d_26">
      <defs>
       <path d="M 0 0 
L -3.5 0 
" id="mbaaedf1bbb" style="stroke:#000000;stroke-width:0.8;"/>
      </defs>
      <g>
       <use style="stroke:#000000;stroke-width:0.8;" x="180" xlink:href="#mbaaedf1bbb" y="961.2"/>
      </g>
     </g>
     <g id="text_27">
      <!-- 0 -->
      <g transform="translate(164.0925 966.518906)scale(0.14 -0.14)">
       <defs>
        <path d="M 2034 4250 
Q 1547 4250 1301 3770 
Q 1056 3291 1056 2328 
Q 1056 1369 1301 889 
Q 1547 409 2034 409 
Q 2525 409 2770 889 
Q 3016 1369 3016 2328 
Q 3016 3291 2770 3770 
Q 2525 4250 2034 4250 
z
M 2034 4750 
Q 2819 4750 3233 4129 
Q 3647 3509 3647 2328 
Q 3647 1150 3233 529 
Q 2819 -91 2034 -91 
Q 1250 -91 836 529 
Q 422 1150 422 2328 
Q 422 3509 836 4129 
Q 1250 4750 2034 4750 
z
" id="DejaVuSans-30" transform="scale(0.015625)"/>
       </defs>
       <use xlink:href="#DejaVuSans-30"/>
      </g>
     </g>
    </g>
    <g id="ytick_2">
     <g id="line2d_27">
      <g>
       <use style="stroke:#000000;stroke-width:0.8;" x="180" xlink:href="#mbaaedf1bbb" y="846.083721"/>
      </g>
     </g>
     <g id="text_28">
      <!-- 500 -->
      <g transform="translate(146.2775 851.402627)scale(0.14 -0.14)">
       <defs>
        <path d="M 691 4666 
L 3169 4666 
L 3169 4134 
L 1269 4134 
L 1269 2991 
Q 1406 3038 1543 3061 
Q 1681 3084 1819 3084 
Q 2600 3084 3056 2656 
Q 3513 2228 3513 1497 
Q 3513 744 3044 326 
Q 2575 -91 1722 -91 
Q 1428 -91 1123 -41 
Q 819 9 494 109 
L 494 744 
Q 775 591 1075 516 
Q 1375 441 1709 441 
Q 2250 441 2565 725 
Q 2881 1009 2881 1497 
Q 2881 1984 2565 2268 
Q 2250 2553 1709 2553 
Q 1456 2553 1204 2497 
Q 953 2441 691 2322 
L 691 4666 
z
" id="DejaVuSans-35" transform="scale(0.015625)"/>
       </defs>
       <use xlink:href="#DejaVuSans-35"/>
       <use x="63.623047" xlink:href="#DejaVuSans-30"/>
       <use x="127.246094" xlink:href="#DejaVuSans-30"/>
      </g>
     </g>
    </g>
    <g id="ytick_3">
     <g id="line2d_28">
      <g>
       <use style="stroke:#000000;stroke-width:0.8;" x="180" xlink:href="#mbaaedf1bbb" y="730.967442"/>
      </g>
     </g>
     <g id="text_29">
      <!-- 1000 -->
      <g transform="translate(137.37 736.286348)scale(0.14 -0.14)">
       <defs>
        <path d="M 794 531 
L 1825 531 
L 1825 4091 
L 703 3866 
L 703 4441 
L 1819 4666 
L 2450 4666 
L 2450 531 
L 3481 531 
L 3481 0 
L 794 0 
L 794 531 
z
" id="DejaVuSans-31" transform="scale(0.015625)"/>
       </defs>
       <use xlink:href="#DejaVuSans-31"/>
       <use x="63.623047" xlink:href="#DejaVuSans-30"/>
       <use x="127.246094" xlink:href="#DejaVuSans-30"/>
       <use x="190.869141" xlink:href="#DejaVuSans-30"/>
      </g>
     </g>
    </g>
    <g id="ytick_4">
     <g id="line2d_29">
      <g>
       <use style="stroke:#000000;stroke-width:0.8;" x="180" xlink:href="#mbaaedf1bbb" y="615.851163"/>
      </g>
     </g>
     <g id="text_30">
      <!-- 1500 -->
      <g transform="translate(137.37 621.170069)scale(0.14 -0.14)">
       <use xlink:href="#DejaVuSans-31"/>
       <use x="63.623047" xlink:href="#DejaVuSans-35"/>
       <use x="127.246094" xlink:href="#DejaVuSans-30"/>
       <use x="190.869141" xlink:href="#DejaVuSans-30"/>
      </g>
     </g>
    </g>
    <g id="ytick_5">
     <g id="line2d_30">
      <g>
       <use style="stroke:#000000;stroke-width:0.8;" x="180" xlink:href="#mbaaedf1bbb" y="500.734884"/>
      </g>
     </g>
     <g id="text_31">
      <!-- 2000 -->
      <g transform="translate(137.37 506.05379)scale(0.14 -0.14)">
       <defs>
        <path d="M 1228 531 
L 3431 531 
L 3431 0 
L 469 0 
L 469 531 
Q 828 903 1448 1529 
Q 2069 2156 2228 2338 
Q 2531 2678 2651 2914 
Q 2772 3150 2772 3378 
Q 2772 3750 2511 3984 
Q 2250 4219 1831 4219 
Q 1534 4219 1204 4116 
Q 875 4013 500 3803 
L 500 4441 
Q 881 4594 1212 4672 
Q 1544 4750 1819 4750 
Q 2544 4750 2975 4387 
Q 3406 4025 3406 3419 
Q 3406 3131 3298 2873 
Q 3191 2616 2906 2266 
Q 2828 2175 2409 1742 
Q 1991 1309 1228 531 
z
" id="DejaVuSans-32" transform="scale(0.015625)"/>
       </defs>
       <use xlink:href="#DejaVuSans-32"/>
       <use x="63.623047" xlink:href="#DejaVuSans-30"/>
       <use x="127.246094" xlink:href="#DejaVuSans-30"/>
       <use x="190.869141" xlink:href="#DejaVuSans-30"/>
      </g>
     </g>
    </g>
    <g id="ytick_6">
     <g id="line2d_31">
      <g>
       <use style="stroke:#000000;stroke-width:0.8;" x="180" xlink:href="#mbaaedf1bbb" y="385.618605"/>
      </g>
     </g>
     <g id="text_32">
      <!-- 2500 -->
      <g transform="translate(137.37 390.937511)scale(0.14 -0.14)">
       <use xlink:href="#DejaVuSans-32"/>
       <use x="63.623047" xlink:href="#DejaVuSans-35"/>
       <use x="127.246094" xlink:href="#DejaVuSans-30"/>
       <use x="190.869141" xlink:href="#DejaVuSans-30"/>
      </g>
     </g>
    </g>
    <g id="ytick_7">
     <g id="line2d_32">
      <g>
       <use style="stroke:#000000;stroke-width:0.8;" x="180" xlink:href="#mbaaedf1bbb" y="270.502326"/>
      </g>
     </g>
     <g id="text_33">
      <!-- 3000 -->
      <g transform="translate(137.37 275.821232)scale(0.14 -0.14)">
       <defs>
        <path d="M 2597 2516 
Q 3050 2419 3304 2112 
Q 3559 1806 3559 1356 
Q 3559 666 3084 287 
Q 2609 -91 1734 -91 
Q 1441 -91 1130 -33 
Q 819 25 488 141 
L 488 750 
Q 750 597 1062 519 
Q 1375 441 1716 441 
Q 2309 441 2620 675 
Q 2931 909 2931 1356 
Q 2931 1769 2642 2001 
Q 2353 2234 1838 2234 
L 1294 2234 
L 1294 2753 
L 1863 2753 
Q 2328 2753 2575 2939 
Q 2822 3125 2822 3475 
Q 2822 3834 2567 4026 
Q 2313 4219 1838 4219 
Q 1578 4219 1281 4162 
Q 984 4106 628 3988 
L 628 4550 
Q 988 4650 1302 4700 
Q 1616 4750 1894 4750 
Q 2613 4750 3031 4423 
Q 3450 4097 3450 3541 
Q 3450 3153 3228 2886 
Q 3006 2619 2597 2516 
z
" id="DejaVuSans-33" transform="scale(0.015625)"/>
       </defs>
       <use xlink:href="#DejaVuSans-33"/>
       <use x="63.623047" xlink:href="#DejaVuSans-30"/>
       <use x="127.246094" xlink:href="#DejaVuSans-30"/>
       <use x="190.869141" xlink:href="#DejaVuSans-30"/>
      </g>
     </g>
    </g>
    <g id="ytick_8">
     <g id="line2d_33">
      <g>
       <use style="stroke:#000000;stroke-width:0.8;" x="180" xlink:href="#mbaaedf1bbb" y="155.386047"/>
      </g>
     </g>
     <g id="text_34">
      <!-- 3500 -->
      <g transform="translate(137.37 160.704953)scale(0.14 -0.14)">
       <use xlink:href="#DejaVuSans-33"/>
       <use x="63.623047" xlink:href="#DejaVuSans-35"/>
       <use x="127.246094" xlink:href="#DejaVuSans-30"/>
       <use x="190.869141" xlink:href="#DejaVuSans-30"/>
      </g>
     </g>
    </g>
    <g id="text_35">
     <!-- Frequency -->
     <g transform="translate(129.9175 592.22625)rotate(-90)scale(0.16 -0.16)">
      <defs>
       <path d="M 588 4666 
L 3834 4666 
L 3834 3756 
L 1791 3756 
L 1791 2888 
L 3713 2888 
L 3713 1978 
L 1791 1978 
L 1791 0 
L 588 0 
L 588 4666 
z
" id="DejaVuSans-Bold-46" transform="scale(0.015625)"/>
       <path d="M 4031 1759 
L 4031 1441 
L 1416 1441 
Q 1456 1047 1700 850 
Q 1944 653 2381 653 
Q 2734 653 3104 758 
Q 3475 863 3866 1075 
L 3866 213 
Q 3469 63 3072 -14 
Q 2675 -91 2278 -91 
Q 1328 -91 801 392 
Q 275 875 275 1747 
Q 275 2603 792 3093 
Q 1309 3584 2216 3584 
Q 3041 3584 3536 3087 
Q 4031 2591 4031 1759 
z
M 2881 2131 
Q 2881 2450 2695 2645 
Q 2509 2841 2209 2841 
Q 1884 2841 1681 2658 
Q 1478 2475 1428 2131 
L 2881 2131 
z
" id="DejaVuSans-Bold-65" transform="scale(0.015625)"/>
       <path d="M 2181 2772 
Q 1825 2772 1636 2509 
Q 1447 2247 1447 1747 
Q 1447 1247 1636 984 
Q 1825 722 2181 722 
Q 2541 722 2730 984 
Q 2919 1247 2919 1747 
Q 2919 2247 2730 2509 
Q 2541 2772 2181 2772 
z
M 2919 506 
Q 2688 197 2409 53 
Q 2131 -91 1766 -91 
Q 1119 -91 703 423 
Q 288 938 288 1747 
Q 288 2556 703 3067 
Q 1119 3578 1766 3578 
Q 2131 3578 2409 3434 
Q 2688 3291 2919 2981 
L 2919 3500 
L 4044 3500 
L 4044 -1331 
L 2919 -1331 
L 2919 506 
z
" id="DejaVuSans-Bold-71" transform="scale(0.015625)"/>
       <path d="M 500 1363 
L 500 3500 
L 1625 3500 
L 1625 3150 
Q 1625 2866 1622 2436 
Q 1619 2006 1619 1863 
Q 1619 1441 1641 1255 
Q 1663 1069 1716 984 
Q 1784 875 1895 815 
Q 2006 756 2150 756 
Q 2500 756 2700 1025 
Q 2900 1294 2900 1772 
L 2900 3500 
L 4019 3500 
L 4019 0 
L 2900 0 
L 2900 506 
Q 2647 200 2364 54 
Q 2081 -91 1741 -91 
Q 1134 -91 817 281 
Q 500 653 500 1363 
z
" id="DejaVuSans-Bold-75" transform="scale(0.015625)"/>
       <path d="M 4056 2131 
L 4056 0 
L 2931 0 
L 2931 347 
L 2931 1631 
Q 2931 2084 2911 2256 
Q 2891 2428 2841 2509 
Q 2775 2619 2662 2680 
Q 2550 2741 2406 2741 
Q 2056 2741 1856 2470 
Q 1656 2200 1656 1722 
L 1656 0 
L 538 0 
L 538 3500 
L 1656 3500 
L 1656 2988 
Q 1909 3294 2193 3439 
Q 2478 3584 2822 3584 
Q 3428 3584 3742 3212 
Q 4056 2841 4056 2131 
z
" id="DejaVuSans-Bold-6e" transform="scale(0.015625)"/>
       <path d="M 3366 3391 
L 3366 2478 
Q 3138 2634 2908 2709 
Q 2678 2784 2431 2784 
Q 1963 2784 1702 2511 
Q 1441 2238 1441 1747 
Q 1441 1256 1702 982 
Q 1963 709 2431 709 
Q 2694 709 2930 787 
Q 3166 866 3366 1019 
L 3366 103 
Q 3103 6 2833 -42 
Q 2563 -91 2291 -91 
Q 1344 -91 809 395 
Q 275 881 275 1747 
Q 275 2613 809 3098 
Q 1344 3584 2291 3584 
Q 2566 3584 2833 3536 
Q 3100 3488 3366 3391 
z
" id="DejaVuSans-Bold-63" transform="scale(0.015625)"/>
       <path d="M 78 3500 
L 1197 3500 
L 2138 1125 
L 2938 3500 
L 4056 3500 
L 2584 -331 
Q 2363 -916 2067 -1148 
Q 1772 -1381 1288 -1381 
L 641 -1381 
L 641 -647 
L 991 -647 
Q 1275 -647 1404 -556 
Q 1534 -466 1606 -231 
L 1638 -134 
L 78 3500 
z
" id="DejaVuSans-Bold-79" transform="scale(0.015625)"/>
      </defs>
      <use xlink:href="#DejaVuSans-Bold-46"/>
      <use x="61.935547" xlink:href="#DejaVuSans-Bold-72"/>
      <use x="111.251953" xlink:href="#DejaVuSans-Bold-65"/>
      <use x="179.074219" xlink:href="#DejaVuSans-Bold-71"/>
      <use x="250.65625" xlink:href="#DejaVuSans-Bold-75"/>
      <use x="321.847656" xlink:href="#DejaVuSans-Bold-65"/>
      <use x="389.669922" xlink:href="#DejaVuSans-Bold-6e"/>
      <use x="460.861328" xlink:href="#DejaVuSans-Bold-63"/>
      <use x="520.138672" xlink:href="#DejaVuSans-Bold-79"/>
     </g>
    </g>
   </g>
   <g id="line2d_34">
    <path clip-path="url(#pf2ddd04cef)" d="M 180 857.134884 
L 1296 857.134884 
" style="fill:none;stroke:#ff556b;stroke-linecap:square;stroke-width:1.5;"/>
   </g>
   <g id="patch_28">
    <path d="M 180 961.2 
L 180 129.6 
" style="fill:none;stroke:#000000;stroke-linecap:square;stroke-linejoin:miter;stroke-width:0.8;"/>
   </g>
   <g id="patch_29">
    <path d="M 1296 961.2 
L 1296 129.6 
" style="fill:none;stroke:#000000;stroke-linecap:square;stroke-linejoin:miter;stroke-width:0.8;"/>
   </g>
   <g id="patch_30">
    <path d="M 180 961.2 
L 1296 961.2 
" style="fill:none;stroke:#000000;stroke-linecap:square;stroke-linejoin:miter;stroke-width:0.8;"/>
   </g>
   <g id="patch_31">
    <path d="M 180 129.6 
L 1296 129.6 
" style="fill:none;stroke:#000000;stroke-linecap:square;stroke-linejoin:miter;stroke-width:0.8;"/>
   </g>
   <g id="text_36">
    <!-- Most frequent words in preprocessed readmes for Reinforcement Learning category -->
    <g transform="translate(309.344063 123.6)scale(0.18 -0.18)">
     <defs>
      <path d="M 588 4666 
L 2119 4666 
L 3181 2169 
L 4250 4666 
L 5778 4666 
L 5778 0 
L 4641 0 
L 4641 3413 
L 3566 897 
L 2803 897 
L 1728 3413 
L 1728 0 
L 588 0 
L 588 4666 
z
" id="DejaVuSans-Bold-4d" transform="scale(0.015625)"/>
      <path d="M 1759 4494 
L 1759 3500 
L 2913 3500 
L 2913 2700 
L 1759 2700 
L 1759 1216 
Q 1759 972 1856 886 
Q 1953 800 2241 800 
L 2816 800 
L 2816 0 
L 1856 0 
Q 1194 0 917 276 
Q 641 553 641 1216 
L 641 2700 
L 84 2700 
L 84 3500 
L 641 3500 
L 641 4494 
L 1759 4494 
z
" id="DejaVuSans-Bold-74" transform="scale(0.015625)"/>
      <path id="DejaVuSans-Bold-20" transform="scale(0.015625)"/>
      <path d="M 2841 4863 
L 2841 4128 
L 2222 4128 
Q 1984 4128 1890 4042 
Q 1797 3956 1797 3744 
L 1797 3500 
L 2753 3500 
L 2753 2700 
L 1797 2700 
L 1797 0 
L 678 0 
L 678 2700 
L 122 2700 
L 122 3500 
L 678 3500 
L 678 3744 
Q 678 4316 997 4589 
Q 1316 4863 1984 4863 
L 2841 4863 
z
" id="DejaVuSans-Bold-66" transform="scale(0.015625)"/>
      <path d="M 225 3500 
L 1313 3500 
L 1900 1088 
L 2491 3500 
L 3425 3500 
L 4013 1113 
L 4603 3500 
L 5691 3500 
L 4769 0 
L 3547 0 
L 2956 2406 
L 2369 0 
L 1147 0 
L 225 3500 
z
" id="DejaVuSans-Bold-77" transform="scale(0.015625)"/>
      <path d="M 538 3500 
L 1656 3500 
L 1656 0 
L 538 0 
L 538 3500 
z
M 538 4863 
L 1656 4863 
L 1656 3950 
L 538 3950 
L 538 4863 
z
" id="DejaVuSans-Bold-69" transform="scale(0.015625)"/>
      <path d="M 1656 506 
L 1656 -1331 
L 538 -1331 
L 538 3500 
L 1656 3500 
L 1656 2988 
Q 1888 3294 2169 3439 
Q 2450 3584 2816 3584 
Q 3463 3584 3878 3070 
Q 4294 2556 4294 1747 
Q 4294 938 3878 423 
Q 3463 -91 2816 -91 
Q 2450 -91 2169 54 
Q 1888 200 1656 506 
z
M 2400 2772 
Q 2041 2772 1848 2508 
Q 1656 2244 1656 1747 
Q 1656 1250 1848 986 
Q 2041 722 2400 722 
Q 2759 722 2948 984 
Q 3138 1247 3138 1747 
Q 3138 2247 2948 2509 
Q 2759 2772 2400 2772 
z
" id="DejaVuSans-Bold-70" transform="scale(0.015625)"/>
      <path d="M 2106 1575 
Q 1756 1575 1579 1456 
Q 1403 1338 1403 1106 
Q 1403 894 1545 773 
Q 1688 653 1941 653 
Q 2256 653 2472 879 
Q 2688 1106 2688 1447 
L 2688 1575 
L 2106 1575 
z
M 3816 1997 
L 3816 0 
L 2688 0 
L 2688 519 
Q 2463 200 2181 54 
Q 1900 -91 1497 -91 
Q 953 -91 614 226 
Q 275 544 275 1050 
Q 275 1666 698 1953 
Q 1122 2241 2028 2241 
L 2688 2241 
L 2688 2328 
Q 2688 2594 2478 2717 
Q 2269 2841 1825 2841 
Q 1466 2841 1156 2769 
Q 847 2697 581 2553 
L 581 3406 
Q 941 3494 1303 3539 
Q 1666 3584 2028 3584 
Q 2975 3584 3395 3211 
Q 3816 2838 3816 1997 
z
" id="DejaVuSans-Bold-61" transform="scale(0.015625)"/>
      <path d="M 3781 2919 
Q 3994 3244 4286 3414 
Q 4578 3584 4928 3584 
Q 5531 3584 5847 3212 
Q 6163 2841 6163 2131 
L 6163 0 
L 5038 0 
L 5038 1825 
Q 5041 1866 5042 1909 
Q 5044 1953 5044 2034 
Q 5044 2406 4934 2573 
Q 4825 2741 4581 2741 
Q 4263 2741 4089 2478 
Q 3916 2216 3909 1719 
L 3909 0 
L 2784 0 
L 2784 1825 
Q 2784 2406 2684 2573 
Q 2584 2741 2328 2741 
Q 2006 2741 1831 2477 
Q 1656 2213 1656 1722 
L 1656 0 
L 531 0 
L 531 3500 
L 1656 3500 
L 1656 2988 
Q 1863 3284 2130 3434 
Q 2397 3584 2719 3584 
Q 3081 3584 3359 3409 
Q 3638 3234 3781 2919 
z
" id="DejaVuSans-Bold-6d" transform="scale(0.015625)"/>
      <path d="M 2297 2597 
Q 2675 2597 2839 2737 
Q 3003 2878 3003 3200 
Q 3003 3519 2839 3656 
Q 2675 3794 2297 3794 
L 1791 3794 
L 1791 2597 
L 2297 2597 
z
M 1791 1766 
L 1791 0 
L 588 0 
L 588 4666 
L 2425 4666 
Q 3347 4666 3776 4356 
Q 4206 4047 4206 3378 
Q 4206 2916 3982 2619 
Q 3759 2322 3309 2181 
Q 3556 2125 3751 1926 
Q 3947 1728 4147 1325 
L 4800 0 
L 3519 0 
L 2950 1159 
Q 2778 1509 2601 1637 
Q 2425 1766 2131 1766 
L 1791 1766 
z
" id="DejaVuSans-Bold-52" transform="scale(0.015625)"/>
      <path d="M 588 4666 
L 1791 4666 
L 1791 909 
L 3903 909 
L 3903 0 
L 588 0 
L 588 4666 
z
" id="DejaVuSans-Bold-4c" transform="scale(0.015625)"/>
      <path d="M 2919 594 
Q 2688 288 2409 144 
Q 2131 0 1766 0 
Q 1125 0 706 504 
Q 288 1009 288 1791 
Q 288 2575 706 3076 
Q 1125 3578 1766 3578 
Q 2131 3578 2409 3434 
Q 2688 3291 2919 2981 
L 2919 3500 
L 4044 3500 
L 4044 353 
Q 4044 -491 3511 -936 
Q 2978 -1381 1966 -1381 
Q 1638 -1381 1331 -1331 
Q 1025 -1281 716 -1178 
L 716 -306 
Q 1009 -475 1290 -558 
Q 1572 -641 1856 -641 
Q 2406 -641 2662 -400 
Q 2919 -159 2919 353 
L 2919 594 
z
M 2181 2772 
Q 1834 2772 1640 2515 
Q 1447 2259 1447 1791 
Q 1447 1309 1634 1061 
Q 1822 813 2181 813 
Q 2531 813 2725 1069 
Q 2919 1325 2919 1791 
Q 2919 2259 2725 2515 
Q 2531 2772 2181 2772 
z
" id="DejaVuSans-Bold-67" transform="scale(0.015625)"/>
     </defs>
     <use xlink:href="#DejaVuSans-Bold-4d"/>
     <use x="99.511719" xlink:href="#DejaVuSans-Bold-6f"/>
     <use x="168.212891" xlink:href="#DejaVuSans-Bold-73"/>
     <use x="227.734375" xlink:href="#DejaVuSans-Bold-74"/>
     <use x="275.537109" xlink:href="#DejaVuSans-Bold-20"/>
     <use x="310.351562" xlink:href="#DejaVuSans-Bold-66"/>
     <use x="353.857422" xlink:href="#DejaVuSans-Bold-72"/>
     <use x="403.173828" xlink:href="#DejaVuSans-Bold-65"/>
     <use x="470.996094" xlink:href="#DejaVuSans-Bold-71"/>
     <use x="542.578125" xlink:href="#DejaVuSans-Bold-75"/>
     <use x="613.769531" xlink:href="#DejaVuSans-Bold-65"/>
     <use x="681.591797" xlink:href="#DejaVuSans-Bold-6e"/>
     <use x="752.783203" xlink:href="#DejaVuSans-Bold-74"/>
     <use x="800.585938" xlink:href="#DejaVuSans-Bold-20"/>
     <use x="835.400391" xlink:href="#DejaVuSans-Bold-77"/>
     <use x="927.783203" xlink:href="#DejaVuSans-Bold-6f"/>
     <use x="996.484375" xlink:href="#DejaVuSans-Bold-72"/>
     <use x="1045.800781" xlink:href="#DejaVuSans-Bold-64"/>
     <use x="1117.382812" xlink:href="#DejaVuSans-Bold-73"/>
     <use x="1176.904297" xlink:href="#DejaVuSans-Bold-20"/>
     <use x="1211.71875" xlink:href="#DejaVuSans-Bold-69"/>
     <use x="1245.996094" xlink:href="#DejaVuSans-Bold-6e"/>
     <use x="1317.1875" xlink:href="#DejaVuSans-Bold-20"/>
     <use x="1352.001953" xlink:href="#DejaVuSans-Bold-70"/>
     <use x="1423.583984" xlink:href="#DejaVuSans-Bold-72"/>
     <use x="1472.900391" xlink:href="#DejaVuSans-Bold-65"/>
     <use x="1540.722656" xlink:href="#DejaVuSans-Bold-70"/>
     <use x="1612.304688" xlink:href="#DejaVuSans-Bold-72"/>
     <use x="1661.621094" xlink:href="#DejaVuSans-Bold-6f"/>
     <use x="1730.322266" xlink:href="#DejaVuSans-Bold-63"/>
     <use x="1789.599609" xlink:href="#DejaVuSans-Bold-65"/>
     <use x="1857.421875" xlink:href="#DejaVuSans-Bold-73"/>
     <use x="1916.943359" xlink:href="#DejaVuSans-Bold-73"/>
     <use x="1976.464844" xlink:href="#DejaVuSans-Bold-65"/>
     <use x="2044.287109" xlink:href="#DejaVuSans-Bold-64"/>
     <use x="2115.869141" xlink:href="#DejaVuSans-Bold-20"/>
     <use x="2150.683594" xlink:href="#DejaVuSans-Bold-72"/>
     <use x="2200" xlink:href="#DejaVuSans-Bold-65"/>
     <use x="2267.822266" xlink:href="#DejaVuSans-Bold-61"/>
     <use x="2335.302734" xlink:href="#DejaVuSans-Bold-64"/>
     <use x="2406.884766" xlink:href="#DejaVuSans-Bold-6d"/>
     <use x="2511.083984" xlink:href="#DejaVuSans-Bold-65"/>
     <use x="2578.90625" xlink:href="#DejaVuSans-Bold-73"/>
     <use x="2638.427734" xlink:href="#DejaVuSans-Bold-20"/>
     <use x="2673.242188" xlink:href="#DejaVuSans-Bold-66"/>
     <use x="2716.748047" xlink:href="#DejaVuSans-Bold-6f"/>
     <use x="2785.449219" xlink:href="#DejaVuSans-Bold-72"/>
     <use x="2834.765625" xlink:href="#DejaVuSans-Bold-20"/>
     <use x="2869.580078" xlink:href="#DejaVuSans-Bold-52"/>
     <use x="2946.582031" xlink:href="#DejaVuSans-Bold-65"/>
     <use x="3014.404297" xlink:href="#DejaVuSans-Bold-69"/>
     <use x="3048.681641" xlink:href="#DejaVuSans-Bold-6e"/>
     <use x="3119.873047" xlink:href="#DejaVuSans-Bold-66"/>
     <use x="3163.378906" xlink:href="#DejaVuSans-Bold-6f"/>
     <use x="3232.080078" xlink:href="#DejaVuSans-Bold-72"/>
     <use x="3281.396484" xlink:href="#DejaVuSans-Bold-63"/>
     <use x="3340.673828" xlink:href="#DejaVuSans-Bold-65"/>
     <use x="3408.496094" xlink:href="#DejaVuSans-Bold-6d"/>
     <use x="3512.695312" xlink:href="#DejaVuSans-Bold-65"/>
     <use x="3580.517578" xlink:href="#DejaVuSans-Bold-6e"/>
     <use x="3651.708984" xlink:href="#DejaVuSans-Bold-74"/>
     <use x="3699.511719" xlink:href="#DejaVuSans-Bold-20"/>
     <use x="3734.326172" xlink:href="#DejaVuSans-Bold-4c"/>
     <use x="3798.046875" xlink:href="#DejaVuSans-Bold-65"/>
     <use x="3865.869141" xlink:href="#DejaVuSans-Bold-61"/>
     <use x="3933.349609" xlink:href="#DejaVuSans-Bold-72"/>
     <use x="3982.666016" xlink:href="#DejaVuSans-Bold-6e"/>
     <use x="4053.857422" xlink:href="#DejaVuSans-Bold-69"/>
     <use x="4088.134766" xlink:href="#DejaVuSans-Bold-6e"/>
     <use x="4159.326172" xlink:href="#DejaVuSans-Bold-67"/>
     <use x="4230.908203" xlink:href="#DejaVuSans-Bold-20"/>
     <use x="4265.722656" xlink:href="#DejaVuSans-Bold-63"/>
     <use x="4325" xlink:href="#DejaVuSans-Bold-61"/>
     <use x="4392.480469" xlink:href="#DejaVuSans-Bold-74"/>
     <use x="4440.283203" xlink:href="#DejaVuSans-Bold-65"/>
     <use x="4508.105469" xlink:href="#DejaVuSans-Bold-67"/>
     <use x="4579.6875" xlink:href="#DejaVuSans-Bold-6f"/>
     <use x="4648.388672" xlink:href="#DejaVuSans-Bold-72"/>
     <use x="4697.705078" xlink:href="#DejaVuSans-Bold-79"/>
    </g>
   </g>
   <g id="legend_1">
    <g id="patch_32">
     <path d="M 1104.571875 161.349375 
L 1286.2 161.349375 
Q 1289 161.349375 1289 158.549375 
L 1289 139.4 
Q 1289 136.6 1286.2 136.6 
L 1104.571875 136.6 
Q 1101.771875 136.6 1101.771875 139.4 
L 1101.771875 158.549375 
Q 1101.771875 161.349375 1104.571875 161.349375 
z
" style="fill:#ffffff;opacity:0.8;stroke:#cccccc;stroke-linejoin:miter;"/>
    </g>
    <g id="line2d_35">
     <path d="M 1107.371875 147.937813 
L 1135.371875 147.937813 
" style="fill:none;stroke:#ff556b;stroke-linecap:square;stroke-width:1.5;"/>
    </g>
    <g id="line2d_36"/>
    <g id="text_37">
     <!-- Number of samples -->
     <g transform="translate(1146.571875 152.837813)scale(0.14 -0.14)">
      <defs>
       <path d="M 628 4666 
L 1478 4666 
L 3547 763 
L 3547 4666 
L 4159 4666 
L 4159 0 
L 3309 0 
L 1241 3903 
L 1241 0 
L 628 0 
L 628 4666 
z
" id="DejaVuSans-4e" transform="scale(0.015625)"/>
       <path id="DejaVuSans-20" transform="scale(0.015625)"/>
      </defs>
      <use xlink:href="#DejaVuSans-4e"/>
      <use x="74.804688" xlink:href="#DejaVuSans-75"/>
      <use x="138.183594" xlink:href="#DejaVuSans-6d"/>
      <use x="235.595703" xlink:href="#DejaVuSans-62"/>
      <use x="299.072266" xlink:href="#DejaVuSans-65"/>
      <use x="360.595703" xlink:href="#DejaVuSans-72"/>
      <use x="401.708984" xlink:href="#DejaVuSans-20"/>
      <use x="433.496094" xlink:href="#DejaVuSans-6f"/>
      <use x="494.677734" xlink:href="#DejaVuSans-66"/>
      <use x="529.882812" xlink:href="#DejaVuSans-20"/>
      <use x="561.669922" xlink:href="#DejaVuSans-73"/>
      <use x="613.769531" xlink:href="#DejaVuSans-61"/>
      <use x="675.048828" xlink:href="#DejaVuSans-6d"/>
      <use x="772.460938" xlink:href="#DejaVuSans-70"/>
      <use x="835.9375" xlink:href="#DejaVuSans-6c"/>
      <use x="863.720703" xlink:href="#DejaVuSans-65"/>
      <use x="925.244141" xlink:href="#DejaVuSans-73"/>
     </g>
    </g>
   </g>
  </g>
 </g>
 <defs>
  <clipPath id="pf2ddd04cef">
   <rect height="831.6" width="1116" x="180" y="129.6"/>
  </clipPath>
 </defs>
</svg>
